<mxfile host="app.diagrams.net" agent="Mozilla/5.0 (Windows NT 10.0; Win64; x64) AppleWebKit/537.36 (KHTML, like Gecko) Chrome/137.0.0.0 Safari/537.36" version="27.1.4">
  <diagram name="PÃ¡gina-1" id="F2UJ6853SAW7tfomUit3">
    <mxGraphModel dx="3696" dy="784" grid="1" gridSize="10" guides="1" tooltips="1" connect="1" arrows="1" fold="1" page="1" pageScale="1" pageWidth="1169" pageHeight="1654" math="0" shadow="0">
      <root>
        <mxCell id="0" />
        <mxCell id="1" parent="0" />
        <mxCell id="7A8Va4b6gNFC_HV1zoVn-414" value="estado" style="edgeStyle=orthogonalEdgeStyle;rounded=0;orthogonalLoop=1;jettySize=auto;html=1;exitX=0.5;exitY=1;exitDx=0;exitDy=0;entryX=0.5;entryY=0;entryDx=0;entryDy=0;" parent="1" source="7A8Va4b6gNFC_HV1zoVn-184" target="7A8Va4b6gNFC_HV1zoVn-243" edge="1">
          <mxGeometry x="0.0056" relative="1" as="geometry">
            <mxPoint as="offset" />
          </mxGeometry>
        </mxCell>
        <mxCell id="7A8Va4b6gNFC_HV1zoVn-424" value="busca *" style="edgeStyle=orthogonalEdgeStyle;rounded=0;orthogonalLoop=1;jettySize=auto;html=1;exitX=0.25;exitY=0;exitDx=0;exitDy=0;entryX=1;entryY=0.5;entryDx=0;entryDy=0;" parent="1" source="7A8Va4b6gNFC_HV1zoVn-184" target="7A8Va4b6gNFC_HV1zoVn-336" edge="1">
          <mxGeometry x="0.0013" relative="1" as="geometry">
            <mxPoint as="offset" />
          </mxGeometry>
        </mxCell>
        <mxCell id="7A8Va4b6gNFC_HV1zoVn-439" style="edgeStyle=orthogonalEdgeStyle;rounded=0;orthogonalLoop=1;jettySize=auto;html=1;exitX=0.25;exitY=1;exitDx=0;exitDy=0;endArrow=none;startFill=0;" parent="1" source="7A8Va4b6gNFC_HV1zoVn-184" edge="1">
          <mxGeometry relative="1" as="geometry">
            <mxPoint x="-130" y="2160" as="targetPoint" />
          </mxGeometry>
        </mxCell>
        <mxCell id="7A8Va4b6gNFC_HV1zoVn-184" value="Muestra" style="swimlane;fontStyle=1;childLayout=stackLayout;horizontal=1;startSize=26;horizontalStack=0;resizeParent=1;resizeParentMax=0;resizeLast=0;collapsible=1;marginBottom=0;" parent="1" vertex="1">
          <mxGeometry x="-100" y="1120" width="430" height="814" as="geometry" />
        </mxCell>
        <mxCell id="7A8Va4b6gNFC_HV1zoVn-185" value="- String foto" style="text;strokeColor=none;fillColor=none;align=left;verticalAlign=top;spacingLeft=4;spacingRight=4;overflow=hidden;rotatable=0;points=[[0,0.5],[1,0.5]];portConstraint=eastwest;" parent="7A8Va4b6gNFC_HV1zoVn-184" vertex="1">
          <mxGeometry y="26" width="430" height="26" as="geometry" />
        </mxCell>
        <mxCell id="7A8Va4b6gNFC_HV1zoVn-186" value="- Ubicacion ubicacion" style="text;strokeColor=none;fillColor=none;align=left;verticalAlign=top;spacingLeft=4;spacingRight=4;overflow=hidden;rotatable=0;points=[[0,0.5],[1,0.5]];portConstraint=eastwest;" parent="7A8Va4b6gNFC_HV1zoVn-184" vertex="1">
          <mxGeometry y="52" width="430" height="26" as="geometry" />
        </mxCell>
        <mxCell id="7A8Va4b6gNFC_HV1zoVn-187" value="- Usuario autor" style="text;strokeColor=none;fillColor=none;align=left;verticalAlign=top;spacingLeft=4;spacingRight=4;overflow=hidden;rotatable=0;points=[[0,0.5],[1,0.5]];portConstraint=eastwest;" parent="7A8Va4b6gNFC_HV1zoVn-184" vertex="1">
          <mxGeometry y="78" width="430" height="26" as="geometry" />
        </mxCell>
        <mxCell id="7A8Va4b6gNFC_HV1zoVn-188" value="- Especie especieInicial" style="text;strokeColor=none;fillColor=none;align=left;verticalAlign=top;spacingLeft=4;spacingRight=4;overflow=hidden;rotatable=0;points=[[0,0.5],[1,0.5]];portConstraint=eastwest;" parent="7A8Va4b6gNFC_HV1zoVn-184" vertex="1">
          <mxGeometry y="104" width="430" height="26" as="geometry" />
        </mxCell>
        <mxCell id="7A8Va4b6gNFC_HV1zoVn-189" value="- LocalDate fechaCreacion" style="text;strokeColor=none;fillColor=none;align=left;verticalAlign=top;spacingLeft=4;spacingRight=4;overflow=hidden;rotatable=0;points=[[0,0.5],[1,0.5]];portConstraint=eastwest;" parent="7A8Va4b6gNFC_HV1zoVn-184" vertex="1">
          <mxGeometry y="130" width="430" height="26" as="geometry" />
        </mxCell>
        <mxCell id="7A8Va4b6gNFC_HV1zoVn-190" value="- HistorialOpiniones historialOpiniones" style="text;strokeColor=none;fillColor=none;align=left;verticalAlign=top;spacingLeft=4;spacingRight=4;overflow=hidden;rotatable=0;points=[[0,0.5],[1,0.5]];portConstraint=eastwest;" parent="7A8Va4b6gNFC_HV1zoVn-184" vertex="1">
          <mxGeometry y="156" width="430" height="26" as="geometry" />
        </mxCell>
        <mxCell id="7A8Va4b6gNFC_HV1zoVn-191" value="- EstadoMuestra estado" style="text;strokeColor=none;fillColor=none;align=left;verticalAlign=top;spacingLeft=4;spacingRight=4;overflow=hidden;rotatable=0;points=[[0,0.5],[1,0.5]];portConstraint=eastwest;" parent="7A8Va4b6gNFC_HV1zoVn-184" vertex="1">
          <mxGeometry y="182" width="430" height="26" as="geometry" />
        </mxCell>
        <mxCell id="7A8Va4b6gNFC_HV1zoVn-192" value="- List&lt;MuestraObserver&gt; observadores" style="text;strokeColor=none;fillColor=none;align=left;verticalAlign=top;spacingLeft=4;spacingRight=4;overflow=hidden;rotatable=0;points=[[0,0.5],[1,0.5]];portConstraint=eastwest;" parent="7A8Va4b6gNFC_HV1zoVn-184" vertex="1">
          <mxGeometry y="208" width="430" height="26" as="geometry" />
        </mxCell>
        <mxCell id="7A8Va4b6gNFC_HV1zoVn-193" value="- TipoOpinion resultadoVerificado" style="text;strokeColor=none;fillColor=none;align=left;verticalAlign=top;spacingLeft=4;spacingRight=4;overflow=hidden;rotatable=0;points=[[0,0.5],[1,0.5]];portConstraint=eastwest;" parent="7A8Va4b6gNFC_HV1zoVn-184" vertex="1">
          <mxGeometry y="234" width="430" height="26" as="geometry" />
        </mxCell>
        <mxCell id="7A8Va4b6gNFC_HV1zoVn-194" value="" style="line;strokeWidth=1;fillColor=none;align=left;verticalAlign=middle;spacingTop=-1;spacingLeft=3;spacingRight=3;rotatable=0;labelPosition=right;points=[];portConstraint=eastwest;" parent="7A8Va4b6gNFC_HV1zoVn-184" vertex="1">
          <mxGeometry y="260" width="430" height="8" as="geometry" />
        </mxCell>
        <mxCell id="7A8Va4b6gNFC_HV1zoVn-195" value="+ Muestra(String, Ubicacion, Usuario, Especie, LocalDate, EstadoMuestra)" style="text;strokeColor=none;fillColor=none;align=left;verticalAlign=top;spacingLeft=4;spacingRight=4;overflow=hidden;rotatable=0;points=[[0,0.5],[1,0.5]];portConstraint=eastwest;" parent="7A8Va4b6gNFC_HV1zoVn-184" vertex="1">
          <mxGeometry y="268" width="430" height="26" as="geometry" />
        </mxCell>
        <mxCell id="7A8Va4b6gNFC_HV1zoVn-196" value="+ Usuario getAutor()" style="text;strokeColor=none;fillColor=none;align=left;verticalAlign=top;spacingLeft=4;spacingRight=4;overflow=hidden;rotatable=0;points=[[0,0.5],[1,0.5]];portConstraint=eastwest;" parent="7A8Va4b6gNFC_HV1zoVn-184" vertex="1">
          <mxGeometry y="294" width="430" height="26" as="geometry" />
        </mxCell>
        <mxCell id="7A8Va4b6gNFC_HV1zoVn-197" value="+ void agregarOpinion(Opinion)" style="text;strokeColor=none;fillColor=none;align=left;verticalAlign=top;spacingLeft=4;spacingRight=4;overflow=hidden;rotatable=0;points=[[0,0.5],[1,0.5]];portConstraint=eastwest;" parent="7A8Va4b6gNFC_HV1zoVn-184" vertex="1">
          <mxGeometry y="320" width="430" height="26" as="geometry" />
        </mxCell>
        <mxCell id="7A8Va4b6gNFC_HV1zoVn-198" value="+ List&lt;Opinion&gt; getOpiniones()" style="text;strokeColor=none;fillColor=none;align=left;verticalAlign=top;spacingLeft=4;spacingRight=4;overflow=hidden;rotatable=0;points=[[0,0.5],[1,0.5]];portConstraint=eastwest;" parent="7A8Va4b6gNFC_HV1zoVn-184" vertex="1">
          <mxGeometry y="346" width="430" height="26" as="geometry" />
        </mxCell>
        <mxCell id="7A8Va4b6gNFC_HV1zoVn-199" value="+ void agregarOpinionAlHistorial(Opinion)" style="text;strokeColor=none;fillColor=none;align=left;verticalAlign=top;spacingLeft=4;spacingRight=4;overflow=hidden;rotatable=0;points=[[0,0.5],[1,0.5]];portConstraint=eastwest;" parent="7A8Va4b6gNFC_HV1zoVn-184" vertex="1">
          <mxGeometry y="372" width="430" height="26" as="geometry" />
        </mxCell>
        <mxCell id="7A8Va4b6gNFC_HV1zoVn-200" value="+ void agregarObservador(MuestraObserver)" style="text;strokeColor=none;fillColor=none;align=left;verticalAlign=top;spacingLeft=4;spacingRight=4;overflow=hidden;rotatable=0;points=[[0,0.5],[1,0.5]];portConstraint=eastwest;" parent="7A8Va4b6gNFC_HV1zoVn-184" vertex="1">
          <mxGeometry y="398" width="430" height="26" as="geometry" />
        </mxCell>
        <mxCell id="7A8Va4b6gNFC_HV1zoVn-201" value="+ void quitarObservador(MuestraObserver)" style="text;strokeColor=none;fillColor=none;align=left;verticalAlign=top;spacingLeft=4;spacingRight=4;overflow=hidden;rotatable=0;points=[[0,0.5],[1,0.5]];portConstraint=eastwest;" parent="7A8Va4b6gNFC_HV1zoVn-184" vertex="1">
          <mxGeometry y="424" width="430" height="26" as="geometry" />
        </mxCell>
        <mxCell id="7A8Va4b6gNFC_HV1zoVn-202" value="+ void setEstado(EstadoMuestra)" style="text;strokeColor=none;fillColor=none;align=left;verticalAlign=top;spacingLeft=4;spacingRight=4;overflow=hidden;rotatable=0;points=[[0,0.5],[1,0.5]];portConstraint=eastwest;" parent="7A8Va4b6gNFC_HV1zoVn-184" vertex="1">
          <mxGeometry y="450" width="430" height="26" as="geometry" />
        </mxCell>
        <mxCell id="7A8Va4b6gNFC_HV1zoVn-203" value="+ void setResultadoVerificado(TipoOpinion)" style="text;strokeColor=none;fillColor=none;align=left;verticalAlign=top;spacingLeft=4;spacingRight=4;overflow=hidden;rotatable=0;points=[[0,0.5],[1,0.5]];portConstraint=eastwest;" parent="7A8Va4b6gNFC_HV1zoVn-184" vertex="1">
          <mxGeometry y="476" width="430" height="26" as="geometry" />
        </mxCell>
        <mxCell id="7A8Va4b6gNFC_HV1zoVn-204" value="+ void verificar()" style="text;strokeColor=none;fillColor=none;align=left;verticalAlign=top;spacingLeft=4;spacingRight=4;overflow=hidden;rotatable=0;points=[[0,0.5],[1,0.5]];portConstraint=eastwest;" parent="7A8Va4b6gNFC_HV1zoVn-184" vertex="1">
          <mxGeometry y="502" width="430" height="26" as="geometry" />
        </mxCell>
        <mxCell id="7A8Va4b6gNFC_HV1zoVn-205" value="+ Ubicacion getUbicacion()" style="text;strokeColor=none;fillColor=none;align=left;verticalAlign=top;spacingLeft=4;spacingRight=4;overflow=hidden;rotatable=0;points=[[0,0.5],[1,0.5]];portConstraint=eastwest;" parent="7A8Va4b6gNFC_HV1zoVn-184" vertex="1">
          <mxGeometry y="528" width="430" height="26" as="geometry" />
        </mxCell>
        <mxCell id="7A8Va4b6gNFC_HV1zoVn-206" value="+ String getFoto()" style="text;strokeColor=none;fillColor=none;align=left;verticalAlign=top;spacingLeft=4;spacingRight=4;overflow=hidden;rotatable=0;points=[[0,0.5],[1,0.5]];portConstraint=eastwest;" parent="7A8Va4b6gNFC_HV1zoVn-184" vertex="1">
          <mxGeometry y="554" width="430" height="26" as="geometry" />
        </mxCell>
        <mxCell id="7A8Va4b6gNFC_HV1zoVn-207" value="+ Especie getEspecieInicial()" style="text;strokeColor=none;fillColor=none;align=left;verticalAlign=top;spacingLeft=4;spacingRight=4;overflow=hidden;rotatable=0;points=[[0,0.5],[1,0.5]];portConstraint=eastwest;" parent="7A8Va4b6gNFC_HV1zoVn-184" vertex="1">
          <mxGeometry y="580" width="430" height="26" as="geometry" />
        </mxCell>
        <mxCell id="7A8Va4b6gNFC_HV1zoVn-208" value="+ LocalDate getFechaCreacion()" style="text;strokeColor=none;fillColor=none;align=left;verticalAlign=top;spacingLeft=4;spacingRight=4;overflow=hidden;rotatable=0;points=[[0,0.5],[1,0.5]];portConstraint=eastwest;" parent="7A8Va4b6gNFC_HV1zoVn-184" vertex="1">
          <mxGeometry y="606" width="430" height="26" as="geometry" />
        </mxCell>
        <mxCell id="7A8Va4b6gNFC_HV1zoVn-209" value="+ boolean estaVerificada()" style="text;strokeColor=none;fillColor=none;align=left;verticalAlign=top;spacingLeft=4;spacingRight=4;overflow=hidden;rotatable=0;points=[[0,0.5],[1,0.5]];portConstraint=eastwest;" parent="7A8Va4b6gNFC_HV1zoVn-184" vertex="1">
          <mxGeometry y="632" width="430" height="26" as="geometry" />
        </mxCell>
        <mxCell id="7A8Va4b6gNFC_HV1zoVn-210" value="+ HistorialOpiniones getHistorialOpiniones()" style="text;strokeColor=none;fillColor=none;align=left;verticalAlign=top;spacingLeft=4;spacingRight=4;overflow=hidden;rotatable=0;points=[[0,0.5],[1,0.5]];portConstraint=eastwest;" parent="7A8Va4b6gNFC_HV1zoVn-184" vertex="1">
          <mxGeometry y="658" width="430" height="26" as="geometry" />
        </mxCell>
        <mxCell id="7A8Va4b6gNFC_HV1zoVn-211" value="+ String getNombreEstado()" style="text;strokeColor=none;fillColor=none;align=left;verticalAlign=top;spacingLeft=4;spacingRight=4;overflow=hidden;rotatable=0;points=[[0,0.5],[1,0.5]];portConstraint=eastwest;" parent="7A8Va4b6gNFC_HV1zoVn-184" vertex="1">
          <mxGeometry y="684" width="430" height="26" as="geometry" />
        </mxCell>
        <mxCell id="7A8Va4b6gNFC_HV1zoVn-212" value="+ TipoOpinion getResultadoVerificado()" style="text;strokeColor=none;fillColor=none;align=left;verticalAlign=top;spacingLeft=4;spacingRight=4;overflow=hidden;rotatable=0;points=[[0,0.5],[1,0.5]];portConstraint=eastwest;" parent="7A8Va4b6gNFC_HV1zoVn-184" vertex="1">
          <mxGeometry y="710" width="430" height="26" as="geometry" />
        </mxCell>
        <mxCell id="7A8Va4b6gNFC_HV1zoVn-434" style="edgeStyle=orthogonalEdgeStyle;rounded=0;orthogonalLoop=1;jettySize=auto;html=1;exitX=0;exitY=0.5;exitDx=0;exitDy=0;endArrow=none;startFill=1;startArrow=classic;" parent="7A8Va4b6gNFC_HV1zoVn-184" source="7A8Va4b6gNFC_HV1zoVn-213" edge="1">
          <mxGeometry relative="1" as="geometry">
            <mxPoint x="-70" y="960" as="targetPoint" />
          </mxGeometry>
        </mxCell>
        <mxCell id="7A8Va4b6gNFC_HV1zoVn-213" value="+ LocalDate getFechaUltimaVotacion()" style="text;strokeColor=none;fillColor=none;align=left;verticalAlign=top;spacingLeft=4;spacingRight=4;overflow=hidden;rotatable=0;points=[[0,0.5],[1,0.5]];portConstraint=eastwest;" parent="7A8Va4b6gNFC_HV1zoVn-184" vertex="1">
          <mxGeometry y="736" width="430" height="26" as="geometry" />
        </mxCell>
        <mxCell id="7A8Va4b6gNFC_HV1zoVn-214" value="+ TipoOpinion getResultadoUltimaOpinion()" style="text;strokeColor=none;fillColor=none;align=left;verticalAlign=top;spacingLeft=4;spacingRight=4;overflow=hidden;rotatable=0;points=[[0,0.5],[1,0.5]];portConstraint=eastwest;" parent="7A8Va4b6gNFC_HV1zoVn-184" vertex="1">
          <mxGeometry y="762" width="430" height="26" as="geometry" />
        </mxCell>
        <mxCell id="7A8Va4b6gNFC_HV1zoVn-215" value="+ int cantidadOpinionesExperto()" style="text;strokeColor=none;fillColor=none;align=left;verticalAlign=top;spacingLeft=4;spacingRight=4;overflow=hidden;rotatable=0;points=[[0,0.5],[1,0.5]];portConstraint=eastwest;" parent="7A8Va4b6gNFC_HV1zoVn-184" vertex="1">
          <mxGeometry y="788" width="430" height="26" as="geometry" />
        </mxCell>
        <mxCell id="7A8Va4b6gNFC_HV1zoVn-419" style="edgeStyle=orthogonalEdgeStyle;rounded=0;orthogonalLoop=1;jettySize=auto;html=1;exitX=0.5;exitY=1;exitDx=0;exitDy=0;entryX=0.5;entryY=0;entryDx=0;entryDy=0;" parent="1" source="7A8Va4b6gNFC_HV1zoVn-216" target="7A8Va4b6gNFC_HV1zoVn-239" edge="1">
          <mxGeometry relative="1" as="geometry">
            <mxPoint x="-1569.9518072289156" y="2890" as="targetPoint" />
          </mxGeometry>
        </mxCell>
        <mxCell id="7A8Va4b6gNFC_HV1zoVn-216" value="Opinion" style="swimlane;fontStyle=1;childLayout=stackLayout;horizontal=1;startSize=26;horizontalStack=0;resizeParent=1;resizeParentMax=0;resizeLast=0;collapsible=1;marginBottom=0;" parent="1" vertex="1">
          <mxGeometry x="-1750" y="2449" width="360" height="320" as="geometry" />
        </mxCell>
        <mxCell id="7A8Va4b6gNFC_HV1zoVn-217" value="- Usuario autor" style="text;strokeColor=none;fillColor=none;align=left;verticalAlign=top;spacingLeft=4;spacingRight=4;overflow=hidden;rotatable=0;points=[[0,0.5],[1,0.5]];portConstraint=eastwest;" parent="7A8Va4b6gNFC_HV1zoVn-216" vertex="1">
          <mxGeometry y="26" width="360" height="26" as="geometry" />
        </mxCell>
        <mxCell id="7A8Va4b6gNFC_HV1zoVn-218" value="- TipoOpinion tipo" style="text;strokeColor=none;fillColor=none;align=left;verticalAlign=top;spacingLeft=4;spacingRight=4;overflow=hidden;rotatable=0;points=[[0,0.5],[1,0.5]];portConstraint=eastwest;" parent="7A8Va4b6gNFC_HV1zoVn-216" vertex="1">
          <mxGeometry y="52" width="360" height="26" as="geometry" />
        </mxCell>
        <mxCell id="7A8Va4b6gNFC_HV1zoVn-219" value="- boolean esDeExperto" style="text;strokeColor=none;fillColor=none;align=left;verticalAlign=top;spacingLeft=4;spacingRight=4;overflow=hidden;rotatable=0;points=[[0,0.5],[1,0.5]];portConstraint=eastwest;" parent="7A8Va4b6gNFC_HV1zoVn-216" vertex="1">
          <mxGeometry y="78" width="360" height="26" as="geometry" />
        </mxCell>
        <mxCell id="7A8Va4b6gNFC_HV1zoVn-220" value="- Muestra muestra" style="text;strokeColor=none;fillColor=none;align=left;verticalAlign=top;spacingLeft=4;spacingRight=4;overflow=hidden;rotatable=0;points=[[0,0.5],[1,0.5]];portConstraint=eastwest;" parent="7A8Va4b6gNFC_HV1zoVn-216" vertex="1">
          <mxGeometry y="104" width="360" height="26" as="geometry" />
        </mxCell>
        <mxCell id="7A8Va4b6gNFC_HV1zoVn-221" value="- LocalDate fecha" style="text;strokeColor=none;fillColor=none;align=left;verticalAlign=top;spacingLeft=4;spacingRight=4;overflow=hidden;rotatable=0;points=[[0,0.5],[1,0.5]];portConstraint=eastwest;" parent="7A8Va4b6gNFC_HV1zoVn-216" vertex="1">
          <mxGeometry y="130" width="360" height="26" as="geometry" />
        </mxCell>
        <mxCell id="7A8Va4b6gNFC_HV1zoVn-222" value="" style="line;strokeWidth=1;fillColor=none;align=left;verticalAlign=middle;spacingTop=-1;spacingLeft=3;spacingRight=3;rotatable=0;labelPosition=right;points=[];portConstraint=eastwest;" parent="7A8Va4b6gNFC_HV1zoVn-216" vertex="1">
          <mxGeometry y="156" width="360" height="8" as="geometry" />
        </mxCell>
        <mxCell id="7A8Va4b6gNFC_HV1zoVn-438" style="edgeStyle=orthogonalEdgeStyle;rounded=0;orthogonalLoop=1;jettySize=auto;html=1;exitX=1;exitY=0.5;exitDx=0;exitDy=0;endArrow=none;startFill=0;" parent="7A8Va4b6gNFC_HV1zoVn-216" source="7A8Va4b6gNFC_HV1zoVn-223" edge="1">
          <mxGeometry relative="1" as="geometry">
            <mxPoint x="1250" y="177.55555555555566" as="targetPoint" />
            <Array as="points">
              <mxPoint x="805" y="177" />
            </Array>
          </mxGeometry>
        </mxCell>
        <mxCell id="7A8Va4b6gNFC_HV1zoVn-223" value="+ Opinion(Usuario, TipoOpinion, boolean, Muestra, LocalDate)" style="text;strokeColor=none;fillColor=none;align=left;verticalAlign=top;spacingLeft=4;spacingRight=4;overflow=hidden;rotatable=0;points=[[0,0.5],[1,0.5]];portConstraint=eastwest;" parent="7A8Va4b6gNFC_HV1zoVn-216" vertex="1">
          <mxGeometry y="164" width="360" height="26" as="geometry" />
        </mxCell>
        <mxCell id="7A8Va4b6gNFC_HV1zoVn-224" value="+ Muestra getMuestra()" style="text;strokeColor=none;fillColor=none;align=left;verticalAlign=top;spacingLeft=4;spacingRight=4;overflow=hidden;rotatable=0;points=[[0,0.5],[1,0.5]];portConstraint=eastwest;" parent="7A8Va4b6gNFC_HV1zoVn-216" vertex="1">
          <mxGeometry y="190" width="360" height="26" as="geometry" />
        </mxCell>
        <mxCell id="7A8Va4b6gNFC_HV1zoVn-225" value="+ TipoOpinion getTipo()" style="text;strokeColor=none;fillColor=none;align=left;verticalAlign=top;spacingLeft=4;spacingRight=4;overflow=hidden;rotatable=0;points=[[0,0.5],[1,0.5]];portConstraint=eastwest;" parent="7A8Va4b6gNFC_HV1zoVn-216" vertex="1">
          <mxGeometry y="216" width="360" height="26" as="geometry" />
        </mxCell>
        <mxCell id="7A8Va4b6gNFC_HV1zoVn-226" value="+ boolean esDeExperto()" style="text;strokeColor=none;fillColor=none;align=left;verticalAlign=top;spacingLeft=4;spacingRight=4;overflow=hidden;rotatable=0;points=[[0,0.5],[1,0.5]];portConstraint=eastwest;" parent="7A8Va4b6gNFC_HV1zoVn-216" vertex="1">
          <mxGeometry y="242" width="360" height="26" as="geometry" />
        </mxCell>
        <mxCell id="7A8Va4b6gNFC_HV1zoVn-227" value="+ Usuario getAutor()" style="text;strokeColor=none;fillColor=none;align=left;verticalAlign=top;spacingLeft=4;spacingRight=4;overflow=hidden;rotatable=0;points=[[0,0.5],[1,0.5]];portConstraint=eastwest;" parent="7A8Va4b6gNFC_HV1zoVn-216" vertex="1">
          <mxGeometry y="268" width="360" height="26" as="geometry" />
        </mxCell>
        <mxCell id="7A8Va4b6gNFC_HV1zoVn-228" value="+ LocalDate getFecha()" style="text;strokeColor=none;fillColor=none;align=left;verticalAlign=top;spacingLeft=4;spacingRight=4;overflow=hidden;rotatable=0;points=[[0,0.5],[1,0.5]];portConstraint=eastwest;" parent="7A8Va4b6gNFC_HV1zoVn-216" vertex="1">
          <mxGeometry y="294" width="360" height="26" as="geometry" />
        </mxCell>
        <mxCell id="7A8Va4b6gNFC_HV1zoVn-401" value="opiniones *" style="edgeStyle=orthogonalEdgeStyle;rounded=0;orthogonalLoop=1;jettySize=auto;html=1;entryX=0;entryY=0.5;entryDx=0;entryDy=0;" parent="1" source="7A8Va4b6gNFC_HV1zoVn-229" target="7A8Va4b6gNFC_HV1zoVn-223" edge="1">
          <mxGeometry relative="1" as="geometry">
            <mxPoint x="-2090" y="2249" as="targetPoint" />
          </mxGeometry>
        </mxCell>
        <mxCell id="7A8Va4b6gNFC_HV1zoVn-229" value="HistorialOpiniones" style="swimlane;fontStyle=1;childLayout=stackLayout;horizontal=1;startSize=26;horizontalStack=0;resizeParent=1;resizeParentMax=0;resizeLast=0;collapsible=1;marginBottom=0;" parent="1" vertex="1">
          <mxGeometry x="-2190" y="1949" width="200" height="190" as="geometry" />
        </mxCell>
        <mxCell id="7A8Va4b6gNFC_HV1zoVn-230" value="- List&lt;Opinion&gt; opiniones" style="text;strokeColor=none;fillColor=none;align=left;verticalAlign=top;spacingLeft=4;spacingRight=4;overflow=hidden;rotatable=0;points=[[0,0.5],[1,0.5]];portConstraint=eastwest;" parent="7A8Va4b6gNFC_HV1zoVn-229" vertex="1">
          <mxGeometry y="26" width="200" height="26" as="geometry" />
        </mxCell>
        <mxCell id="7A8Va4b6gNFC_HV1zoVn-231" value="" style="line;strokeWidth=1;fillColor=none;align=left;verticalAlign=middle;spacingTop=-1;spacingLeft=3;spacingRight=3;rotatable=0;labelPosition=right;points=[];portConstraint=eastwest;" parent="7A8Va4b6gNFC_HV1zoVn-229" vertex="1">
          <mxGeometry y="52" width="200" height="8" as="geometry" />
        </mxCell>
        <mxCell id="7A8Va4b6gNFC_HV1zoVn-232" value="+ HistorialOpiniones()" style="text;strokeColor=none;fillColor=none;align=left;verticalAlign=top;spacingLeft=4;spacingRight=4;overflow=hidden;rotatable=0;points=[[0,0.5],[1,0.5]];portConstraint=eastwest;" parent="7A8Va4b6gNFC_HV1zoVn-229" vertex="1">
          <mxGeometry y="60" width="200" height="26" as="geometry" />
        </mxCell>
        <mxCell id="7A8Va4b6gNFC_HV1zoVn-233" value="+ void agregarOpinion(Opinion)" style="text;strokeColor=none;fillColor=none;align=left;verticalAlign=top;spacingLeft=4;spacingRight=4;overflow=hidden;rotatable=0;points=[[0,0.5],[1,0.5]];portConstraint=eastwest;" parent="7A8Va4b6gNFC_HV1zoVn-229" vertex="1">
          <mxGeometry y="86" width="200" height="26" as="geometry" />
        </mxCell>
        <mxCell id="7A8Va4b6gNFC_HV1zoVn-234" value="+ List&lt;Opinion&gt; getOpiniones()" style="text;strokeColor=none;fillColor=none;align=left;verticalAlign=top;spacingLeft=4;spacingRight=4;overflow=hidden;rotatable=0;points=[[0,0.5],[1,0.5]];portConstraint=eastwest;" parent="7A8Va4b6gNFC_HV1zoVn-229" vertex="1">
          <mxGeometry y="112" width="200" height="26" as="geometry" />
        </mxCell>
        <mxCell id="7A8Va4b6gNFC_HV1zoVn-235" value="+ int cantidadOpinionesExperto()" style="text;strokeColor=none;fillColor=none;align=left;verticalAlign=top;spacingLeft=4;spacingRight=4;overflow=hidden;rotatable=0;points=[[0,0.5],[1,0.5]];portConstraint=eastwest;" parent="7A8Va4b6gNFC_HV1zoVn-229" vertex="1">
          <mxGeometry y="138" width="200" height="26" as="geometry" />
        </mxCell>
        <mxCell id="7A8Va4b6gNFC_HV1zoVn-236" value="+ Opinion getUltimaOpinion()" style="text;strokeColor=none;fillColor=none;align=left;verticalAlign=top;spacingLeft=4;spacingRight=4;overflow=hidden;rotatable=0;points=[[0,0.5],[1,0.5]];portConstraint=eastwest;" parent="7A8Va4b6gNFC_HV1zoVn-229" vertex="1">
          <mxGeometry y="164" width="200" height="26" as="geometry" />
        </mxCell>
        <mxCell id="7A8Va4b6gNFC_HV1zoVn-237" value="MuestraObserver" style="swimlane;fontStyle=3;childLayout=stackLayout;horizontal=1;startSize=26;horizontalStack=0;resizeParent=1;resizeParentMax=0;resizeLast=0;collapsible=1;marginBottom=0;" parent="1" vertex="1">
          <mxGeometry x="760" y="1120" width="210" height="52" as="geometry" />
        </mxCell>
        <mxCell id="7A8Va4b6gNFC_HV1zoVn-238" value="+ void muestraVerificada(Muestra)" style="text;strokeColor=none;fillColor=none;align=left;verticalAlign=top;spacingLeft=4;spacingRight=4;overflow=hidden;rotatable=0;points=[[0,0.5],[1,0.5]];portConstraint=eastwest;" parent="7A8Va4b6gNFC_HV1zoVn-237" vertex="1">
          <mxGeometry y="26" width="210" height="26" as="geometry" />
        </mxCell>
        <mxCell id="7A8Va4b6gNFC_HV1zoVn-435" style="edgeStyle=orthogonalEdgeStyle;rounded=0;orthogonalLoop=1;jettySize=auto;html=1;exitX=1;exitY=0.25;exitDx=0;exitDy=0;endArrow=none;startFill=1;endFill=1;startArrow=classic;" parent="1" source="7A8Va4b6gNFC_HV1zoVn-239" edge="1">
          <mxGeometry relative="1" as="geometry">
            <mxPoint x="-440" y="2952" as="targetPoint" />
          </mxGeometry>
        </mxCell>
        <mxCell id="7A8Va4b6gNFC_HV1zoVn-239" value="TipoOpinion" style="swimlane;fontStyle=1;childLayout=stackLayout;horizontal=1;startSize=26;horizontalStack=0;resizeParent=1;resizeParentMax=0;resizeLast=0;collapsible=1;marginBottom=0;" parent="1" vertex="1">
          <mxGeometry x="-1875" y="2939" width="610" height="52" as="geometry" />
        </mxCell>
        <mxCell id="7A8Va4b6gNFC_HV1zoVn-432" style="edgeStyle=orthogonalEdgeStyle;rounded=0;orthogonalLoop=1;jettySize=auto;html=1;exitX=1;exitY=0.5;exitDx=0;exitDy=0;endArrow=none;startFill=1;endFill=1;startArrow=classic;" parent="7A8Va4b6gNFC_HV1zoVn-239" source="7A8Va4b6gNFC_HV1zoVn-240" edge="1">
          <mxGeometry relative="1" as="geometry">
            <mxPoint x="1275" y="21" as="targetPoint" />
            <Array as="points">
              <mxPoint x="1275" y="39" />
            </Array>
          </mxGeometry>
        </mxCell>
        <mxCell id="7A8Va4b6gNFC_HV1zoVn-240" value="VINCHUCA, CHINCHE_FOLIADA, PHTIA_CHINCHE, NINGUNA, IMAGEN_POCO_CLARA, NO_DEFINIDO" style="text;strokeColor=none;fillColor=none;align=left;verticalAlign=top;spacingLeft=4;spacingRight=4;overflow=hidden;rotatable=0;points=[[0,0.5],[1,0.5]];portConstraint=eastwest;" parent="7A8Va4b6gNFC_HV1zoVn-239" vertex="1">
          <mxGeometry y="26" width="610" height="26" as="geometry" />
        </mxCell>
        <mxCell id="7A8Va4b6gNFC_HV1zoVn-241" value="Especie" style="swimlane;fontStyle=1;childLayout=stackLayout;horizontal=1;startSize=26;horizontalStack=0;resizeParent=1;resizeParentMax=0;resizeLast=0;collapsible=1;marginBottom=0;" parent="1" vertex="1">
          <mxGeometry x="-560" y="1910" width="320" height="52" as="geometry" />
        </mxCell>
        <mxCell id="7A8Va4b6gNFC_HV1zoVn-242" value="INFESTANS, SORDIDA, GUASAYANA, NO_DEFINIDA" style="text;strokeColor=none;fillColor=none;align=left;verticalAlign=top;spacingLeft=4;spacingRight=4;overflow=hidden;rotatable=0;points=[[0,0.5],[1,0.5]];portConstraint=eastwest;" parent="7A8Va4b6gNFC_HV1zoVn-241" vertex="1">
          <mxGeometry y="26" width="320" height="26" as="geometry" />
        </mxCell>
        <mxCell id="7A8Va4b6gNFC_HV1zoVn-387" style="edgeStyle=orthogonalEdgeStyle;rounded=0;orthogonalLoop=1;jettySize=auto;html=1;exitX=0.5;exitY=1;exitDx=0;exitDy=0;entryX=0.5;entryY=0;entryDx=0;entryDy=0;dashed=1;endArrow=none;endFill=0;startArrow=block;startFill=0;" parent="1" source="7A8Va4b6gNFC_HV1zoVn-243" target="7A8Va4b6gNFC_HV1zoVn-367" edge="1">
          <mxGeometry relative="1" as="geometry" />
        </mxCell>
        <mxCell id="7A8Va4b6gNFC_HV1zoVn-243" value="EstadoMuestra" style="swimlane;fontStyle=3;childLayout=stackLayout;horizontal=1;startSize=26;horizontalStack=0;resizeParent=1;resizeParentMax=0;resizeLast=0;collapsible=1;marginBottom=0;" parent="1" vertex="1">
          <mxGeometry x="-15" y="2113" width="260" height="208" as="geometry" />
        </mxCell>
        <mxCell id="7A8Va4b6gNFC_HV1zoVn-244" value="+ boolean esVerificada()" style="text;strokeColor=none;fillColor=none;align=left;verticalAlign=top;spacingLeft=4;spacingRight=4;overflow=hidden;rotatable=0;points=[[0,0.5],[1,0.5]];portConstraint=eastwest;" parent="7A8Va4b6gNFC_HV1zoVn-243" vertex="1">
          <mxGeometry y="26" width="260" height="26" as="geometry" />
        </mxCell>
        <mxCell id="7A8Va4b6gNFC_HV1zoVn-245" value="+ boolean esAbierta()" style="text;strokeColor=none;fillColor=none;align=left;verticalAlign=top;spacingLeft=4;spacingRight=4;overflow=hidden;rotatable=0;points=[[0,0.5],[1,0.5]];portConstraint=eastwest;" parent="7A8Va4b6gNFC_HV1zoVn-243" vertex="1">
          <mxGeometry y="52" width="260" height="26" as="geometry" />
        </mxCell>
        <mxCell id="7A8Va4b6gNFC_HV1zoVn-246" value="+ boolean esEnVerificacion()" style="text;strokeColor=none;fillColor=none;align=left;verticalAlign=top;spacingLeft=4;spacingRight=4;overflow=hidden;rotatable=0;points=[[0,0.5],[1,0.5]];portConstraint=eastwest;" parent="7A8Va4b6gNFC_HV1zoVn-243" vertex="1">
          <mxGeometry y="78" width="260" height="26" as="geometry" />
        </mxCell>
        <mxCell id="7A8Va4b6gNFC_HV1zoVn-247" value="+ void notificarSiVerificada(Muestra)" style="text;strokeColor=none;fillColor=none;align=left;verticalAlign=top;spacingLeft=4;spacingRight=4;overflow=hidden;rotatable=0;points=[[0,0.5],[1,0.5]];portConstraint=eastwest;" parent="7A8Va4b6gNFC_HV1zoVn-243" vertex="1">
          <mxGeometry y="104" width="260" height="26" as="geometry" />
        </mxCell>
        <mxCell id="7A8Va4b6gNFC_HV1zoVn-248" value="+ void agregarOpinion(Muestra, Opinion)" style="text;strokeColor=none;fillColor=none;align=left;verticalAlign=top;spacingLeft=4;spacingRight=4;overflow=hidden;rotatable=0;points=[[0,0.5],[1,0.5]];portConstraint=eastwest;" parent="7A8Va4b6gNFC_HV1zoVn-243" vertex="1">
          <mxGeometry y="130" width="260" height="26" as="geometry" />
        </mxCell>
        <mxCell id="7A8Va4b6gNFC_HV1zoVn-249" value="+ TipoOpinion getResultadoActual(Muestra)" style="text;strokeColor=none;fillColor=none;align=left;verticalAlign=top;spacingLeft=4;spacingRight=4;overflow=hidden;rotatable=0;points=[[0,0.5],[1,0.5]];portConstraint=eastwest;" parent="7A8Va4b6gNFC_HV1zoVn-243" vertex="1">
          <mxGeometry y="156" width="260" height="26" as="geometry" />
        </mxCell>
        <mxCell id="7A8Va4b6gNFC_HV1zoVn-250" value="+ String getNombreEstado()" style="text;strokeColor=none;fillColor=none;align=left;verticalAlign=top;spacingLeft=4;spacingRight=4;overflow=hidden;rotatable=0;points=[[0,0.5],[1,0.5]];portConstraint=eastwest;" parent="7A8Va4b6gNFC_HV1zoVn-243" vertex="1">
          <mxGeometry y="182" width="260" height="26" as="geometry" />
        </mxCell>
        <mxCell id="7A8Va4b6gNFC_HV1zoVn-251" value="Usuario" style="swimlane;fontStyle=1;childLayout=stackLayout;horizontal=1;startSize=26;horizontalStack=0;resizeParent=1;resizeParentMax=0;resizeLast=0;collapsible=1;marginBottom=0;" parent="1" vertex="1">
          <mxGeometry x="-1750" y="1760" width="280" height="580" as="geometry" />
        </mxCell>
        <mxCell id="7A8Va4b6gNFC_HV1zoVn-252" value="- String nombre" style="text;strokeColor=none;fillColor=none;align=left;verticalAlign=top;spacingLeft=4;spacingRight=4;overflow=hidden;rotatable=0;points=[[0,0.5],[1,0.5]];portConstraint=eastwest;" parent="7A8Va4b6gNFC_HV1zoVn-251" vertex="1">
          <mxGeometry y="26" width="280" height="26" as="geometry" />
        </mxCell>
        <mxCell id="7A8Va4b6gNFC_HV1zoVn-253" value="- String email" style="text;strokeColor=none;fillColor=none;align=left;verticalAlign=top;spacingLeft=4;spacingRight=4;overflow=hidden;rotatable=0;points=[[0,0.5],[1,0.5]];portConstraint=eastwest;" parent="7A8Va4b6gNFC_HV1zoVn-251" vertex="1">
          <mxGeometry y="52" width="280" height="26" as="geometry" />
        </mxCell>
        <mxCell id="7A8Va4b6gNFC_HV1zoVn-254" value="- EstadoUsuario estado" style="text;strokeColor=none;fillColor=none;align=left;verticalAlign=top;spacingLeft=4;spacingRight=4;overflow=hidden;rotatable=0;points=[[0,0.5],[1,0.5]];portConstraint=eastwest;" parent="7A8Va4b6gNFC_HV1zoVn-251" vertex="1">
          <mxGeometry y="78" width="280" height="26" as="geometry" />
        </mxCell>
        <mxCell id="7A8Va4b6gNFC_HV1zoVn-255" value="- List&lt;Muestra&gt; envios" style="text;strokeColor=none;fillColor=none;align=left;verticalAlign=top;spacingLeft=4;spacingRight=4;overflow=hidden;rotatable=0;points=[[0,0.5],[1,0.5]];portConstraint=eastwest;" parent="7A8Va4b6gNFC_HV1zoVn-251" vertex="1">
          <mxGeometry y="104" width="280" height="26" as="geometry" />
        </mxCell>
        <mxCell id="7A8Va4b6gNFC_HV1zoVn-256" value="- List&lt;Opinion&gt; revisiones" style="text;strokeColor=none;fillColor=none;align=left;verticalAlign=top;spacingLeft=4;spacingRight=4;overflow=hidden;rotatable=0;points=[[0,0.5],[1,0.5]];portConstraint=eastwest;" parent="7A8Va4b6gNFC_HV1zoVn-251" vertex="1">
          <mxGeometry y="130" width="280" height="26" as="geometry" />
        </mxCell>
        <mxCell id="7A8Va4b6gNFC_HV1zoVn-257" value="" style="line;strokeWidth=1;fillColor=none;align=left;verticalAlign=middle;spacingTop=-1;spacingLeft=3;spacingRight=3;rotatable=0;labelPosition=right;points=[];portConstraint=eastwest;" parent="7A8Va4b6gNFC_HV1zoVn-251" vertex="1">
          <mxGeometry y="156" width="280" height="8" as="geometry" />
        </mxCell>
        <mxCell id="7A8Va4b6gNFC_HV1zoVn-258" value="+ Usuario(String, String)" style="text;strokeColor=none;fillColor=none;align=left;verticalAlign=top;spacingLeft=4;spacingRight=4;overflow=hidden;rotatable=0;points=[[0,0.5],[1,0.5]];portConstraint=eastwest;" parent="7A8Va4b6gNFC_HV1zoVn-251" vertex="1">
          <mxGeometry y="164" width="280" height="26" as="geometry" />
        </mxCell>
        <mxCell id="7A8Va4b6gNFC_HV1zoVn-259" value="+ Usuario(String, String, boolean)" style="text;strokeColor=none;fillColor=none;align=left;verticalAlign=top;spacingLeft=4;spacingRight=4;overflow=hidden;rotatable=0;points=[[0,0.5],[1,0.5]];portConstraint=eastwest;" parent="7A8Va4b6gNFC_HV1zoVn-251" vertex="1">
          <mxGeometry y="190" width="280" height="26" as="geometry" />
        </mxCell>
        <mxCell id="7A8Va4b6gNFC_HV1zoVn-260" value="+ boolean esExperto()" style="text;strokeColor=none;fillColor=none;align=left;verticalAlign=top;spacingLeft=4;spacingRight=4;overflow=hidden;rotatable=0;points=[[0,0.5],[1,0.5]];portConstraint=eastwest;" parent="7A8Va4b6gNFC_HV1zoVn-251" vertex="1">
          <mxGeometry y="216" width="280" height="26" as="geometry" />
        </mxCell>
        <mxCell id="7A8Va4b6gNFC_HV1zoVn-261" value="+ boolean esEspecialista()" style="text;strokeColor=none;fillColor=none;align=left;verticalAlign=top;spacingLeft=4;spacingRight=4;overflow=hidden;rotatable=0;points=[[0,0.5],[1,0.5]];portConstraint=eastwest;" parent="7A8Va4b6gNFC_HV1zoVn-251" vertex="1">
          <mxGeometry y="242" width="280" height="26" as="geometry" />
        </mxCell>
        <mxCell id="7A8Va4b6gNFC_HV1zoVn-262" value="+ boolean cumpleRequisitosDeExperto()" style="text;strokeColor=none;fillColor=none;align=left;verticalAlign=top;spacingLeft=4;spacingRight=4;overflow=hidden;rotatable=0;points=[[0,0.5],[1,0.5]];portConstraint=eastwest;" parent="7A8Va4b6gNFC_HV1zoVn-251" vertex="1">
          <mxGeometry y="268" width="280" height="26" as="geometry" />
        </mxCell>
        <mxCell id="7A8Va4b6gNFC_HV1zoVn-263" value="+ void evaluarPromocion()" style="text;strokeColor=none;fillColor=none;align=left;verticalAlign=top;spacingLeft=4;spacingRight=4;overflow=hidden;rotatable=0;points=[[0,0.5],[1,0.5]];portConstraint=eastwest;" parent="7A8Va4b6gNFC_HV1zoVn-251" vertex="1">
          <mxGeometry y="294" width="280" height="26" as="geometry" />
        </mxCell>
        <mxCell id="7A8Va4b6gNFC_HV1zoVn-264" value="+ void enviarMuestra(Muestra)" style="text;strokeColor=none;fillColor=none;align=left;verticalAlign=top;spacingLeft=4;spacingRight=4;overflow=hidden;rotatable=0;points=[[0,0.5],[1,0.5]];portConstraint=eastwest;" parent="7A8Va4b6gNFC_HV1zoVn-251" vertex="1">
          <mxGeometry y="320" width="280" height="26" as="geometry" />
        </mxCell>
        <mxCell id="7A8Va4b6gNFC_HV1zoVn-265" value="+ void opinar(Muestra, TipoOpinion)" style="text;strokeColor=none;fillColor=none;align=left;verticalAlign=top;spacingLeft=4;spacingRight=4;overflow=hidden;rotatable=0;points=[[0,0.5],[1,0.5]];portConstraint=eastwest;" parent="7A8Va4b6gNFC_HV1zoVn-251" vertex="1">
          <mxGeometry y="346" width="280" height="26" as="geometry" />
        </mxCell>
        <mxCell id="7A8Va4b6gNFC_HV1zoVn-266" value="+ String getNombre()" style="text;strokeColor=none;fillColor=none;align=left;verticalAlign=top;spacingLeft=4;spacingRight=4;overflow=hidden;rotatable=0;points=[[0,0.5],[1,0.5]];portConstraint=eastwest;" parent="7A8Va4b6gNFC_HV1zoVn-251" vertex="1">
          <mxGeometry y="372" width="280" height="26" as="geometry" />
        </mxCell>
        <mxCell id="7A8Va4b6gNFC_HV1zoVn-267" value="+ String getEmail()" style="text;strokeColor=none;fillColor=none;align=left;verticalAlign=top;spacingLeft=4;spacingRight=4;overflow=hidden;rotatable=0;points=[[0,0.5],[1,0.5]];portConstraint=eastwest;" parent="7A8Va4b6gNFC_HV1zoVn-251" vertex="1">
          <mxGeometry y="398" width="280" height="26" as="geometry" />
        </mxCell>
        <mxCell id="7A8Va4b6gNFC_HV1zoVn-268" value="+ EstadoUsuario getEstado()" style="text;strokeColor=none;fillColor=none;align=left;verticalAlign=top;spacingLeft=4;spacingRight=4;overflow=hidden;rotatable=0;points=[[0,0.5],[1,0.5]];portConstraint=eastwest;" parent="7A8Va4b6gNFC_HV1zoVn-251" vertex="1">
          <mxGeometry y="424" width="280" height="26" as="geometry" />
        </mxCell>
        <mxCell id="7A8Va4b6gNFC_HV1zoVn-269" value="+ void setEstado(EstadoUsuario)" style="text;strokeColor=none;fillColor=none;align=left;verticalAlign=top;spacingLeft=4;spacingRight=4;overflow=hidden;rotatable=0;points=[[0,0.5],[1,0.5]];portConstraint=eastwest;" parent="7A8Va4b6gNFC_HV1zoVn-251" vertex="1">
          <mxGeometry y="450" width="280" height="26" as="geometry" />
        </mxCell>
        <mxCell id="7A8Va4b6gNFC_HV1zoVn-270" value="+ List&lt;Muestra&gt; getEnvios()" style="text;strokeColor=none;fillColor=none;align=left;verticalAlign=top;spacingLeft=4;spacingRight=4;overflow=hidden;rotatable=0;points=[[0,0.5],[1,0.5]];portConstraint=eastwest;" parent="7A8Va4b6gNFC_HV1zoVn-251" vertex="1">
          <mxGeometry y="476" width="280" height="26" as="geometry" />
        </mxCell>
        <mxCell id="7A8Va4b6gNFC_HV1zoVn-271" value="+ List&lt;Opinion&gt; getRevisiones()" style="text;strokeColor=none;fillColor=none;align=left;verticalAlign=top;spacingLeft=4;spacingRight=4;overflow=hidden;rotatable=0;points=[[0,0.5],[1,0.5]];portConstraint=eastwest;" parent="7A8Va4b6gNFC_HV1zoVn-251" vertex="1">
          <mxGeometry y="502" width="280" height="26" as="geometry" />
        </mxCell>
        <mxCell id="7A8Va4b6gNFC_HV1zoVn-272" value="+ long cantidadMuestrasRecientes(LocalDate)" style="text;strokeColor=none;fillColor=none;align=left;verticalAlign=top;spacingLeft=4;spacingRight=4;overflow=hidden;rotatable=0;points=[[0,0.5],[1,0.5]];portConstraint=eastwest;" parent="7A8Va4b6gNFC_HV1zoVn-251" vertex="1">
          <mxGeometry y="528" width="280" height="26" as="geometry" />
        </mxCell>
        <mxCell id="7A8Va4b6gNFC_HV1zoVn-273" value="+ long cantidadRevisionesRecientes(LocalDate)" style="text;strokeColor=none;fillColor=none;align=left;verticalAlign=top;spacingLeft=4;spacingRight=4;overflow=hidden;rotatable=0;points=[[0,0.5],[1,0.5]];portConstraint=eastwest;" parent="7A8Va4b6gNFC_HV1zoVn-251" vertex="1">
          <mxGeometry y="554" width="280" height="26" as="geometry" />
        </mxCell>
        <mxCell id="7A8Va4b6gNFC_HV1zoVn-433" value="estado" style="edgeStyle=orthogonalEdgeStyle;rounded=0;orthogonalLoop=1;jettySize=auto;html=1;exitX=0.5;exitY=0;exitDx=0;exitDy=0;entryX=1;entryY=0.5;entryDx=0;entryDy=0;endArrow=none;startFill=1;startArrow=classic;" parent="1" source="7A8Va4b6gNFC_HV1zoVn-274" target="7A8Va4b6gNFC_HV1zoVn-255" edge="1">
          <mxGeometry relative="1" as="geometry" />
        </mxCell>
        <mxCell id="7A8Va4b6gNFC_HV1zoVn-274" value="EstadoUsuario" style="swimlane;fontStyle=3;childLayout=stackLayout;horizontal=1;startSize=26;horizontalStack=0;resizeParent=1;resizeParentMax=0;resizeLast=0;collapsible=1;marginBottom=0;" parent="1" vertex="1">
          <mxGeometry x="-1080" y="1920" width="210" height="104" as="geometry" />
        </mxCell>
        <mxCell id="7A8Va4b6gNFC_HV1zoVn-275" value="+ boolean esExperto()" style="text;strokeColor=none;fillColor=none;align=left;verticalAlign=top;spacingLeft=4;spacingRight=4;overflow=hidden;rotatable=0;points=[[0,0.5],[1,0.5]];portConstraint=eastwest;" parent="7A8Va4b6gNFC_HV1zoVn-274" vertex="1">
          <mxGeometry y="26" width="210" height="26" as="geometry" />
        </mxCell>
        <mxCell id="7A8Va4b6gNFC_HV1zoVn-276" value="+ boolean esEspecialista()" style="text;strokeColor=none;fillColor=none;align=left;verticalAlign=top;spacingLeft=4;spacingRight=4;overflow=hidden;rotatable=0;points=[[0,0.5],[1,0.5]];portConstraint=eastwest;" parent="7A8Va4b6gNFC_HV1zoVn-274" vertex="1">
          <mxGeometry y="52" width="210" height="26" as="geometry" />
        </mxCell>
        <mxCell id="7A8Va4b6gNFC_HV1zoVn-277" value="+ void evaluarPromocion(Usuario)" style="text;strokeColor=none;fillColor=none;align=left;verticalAlign=top;spacingLeft=4;spacingRight=4;overflow=hidden;rotatable=0;points=[[0,0.5],[1,0.5]];portConstraint=eastwest;" parent="7A8Va4b6gNFC_HV1zoVn-274" vertex="1">
          <mxGeometry y="78" width="210" height="26" as="geometry" />
        </mxCell>
        <mxCell id="dMVTZBA2ObA4GUsqTA2Y-43" value="organizacionesRegistradas *" style="edgeStyle=orthogonalEdgeStyle;rounded=0;orthogonalLoop=1;jettySize=auto;html=1;exitX=0.5;exitY=0;exitDx=0;exitDy=0;entryX=0.421;entryY=1;entryDx=0;entryDy=0;entryPerimeter=0;endArrow=none;startFill=1;startArrow=classic;" edge="1" parent="1" source="7A8Va4b6gNFC_HV1zoVn-278" target="dMVTZBA2ObA4GUsqTA2Y-36">
          <mxGeometry relative="1" as="geometry">
            <mxPoint x="1590" y="1250" as="targetPoint" />
          </mxGeometry>
        </mxCell>
        <mxCell id="7A8Va4b6gNFC_HV1zoVn-278" value="Organizacion" style="swimlane;fontStyle=1;childLayout=stackLayout;horizontal=1;startSize=26;horizontalStack=0;resizeParent=1;resizeParentMax=0;resizeLast=0;collapsible=1;marginBottom=0;" parent="1" vertex="1">
          <mxGeometry x="1410" y="1422" width="360" height="502" as="geometry" />
        </mxCell>
        <mxCell id="7A8Va4b6gNFC_HV1zoVn-279" value="- String nombre" style="text;strokeColor=none;fillColor=none;align=left;verticalAlign=top;spacingLeft=4;spacingRight=4;overflow=hidden;rotatable=0;points=[[0,0.5],[1,0.5]];portConstraint=eastwest;" parent="7A8Va4b6gNFC_HV1zoVn-278" vertex="1">
          <mxGeometry y="26" width="360" height="26" as="geometry" />
        </mxCell>
        <mxCell id="7A8Va4b6gNFC_HV1zoVn-280" value="- Ubicacion ubicacion" style="text;strokeColor=none;fillColor=none;align=left;verticalAlign=top;spacingLeft=4;spacingRight=4;overflow=hidden;rotatable=0;points=[[0,0.5],[1,0.5]];portConstraint=eastwest;" parent="7A8Va4b6gNFC_HV1zoVn-278" vertex="1">
          <mxGeometry y="52" width="360" height="26" as="geometry" />
        </mxCell>
        <mxCell id="7A8Va4b6gNFC_HV1zoVn-281" value="- TipoOrganizacion tipo" style="text;strokeColor=none;fillColor=none;align=left;verticalAlign=top;spacingLeft=4;spacingRight=4;overflow=hidden;rotatable=0;points=[[0,0.5],[1,0.5]];portConstraint=eastwest;" parent="7A8Va4b6gNFC_HV1zoVn-278" vertex="1">
          <mxGeometry y="78" width="360" height="26" as="geometry" />
        </mxCell>
        <mxCell id="7A8Va4b6gNFC_HV1zoVn-282" value="- int cantidadEmpleados" style="text;strokeColor=none;fillColor=none;align=left;verticalAlign=top;spacingLeft=4;spacingRight=4;overflow=hidden;rotatable=0;points=[[0,0.5],[1,0.5]];portConstraint=eastwest;" parent="7A8Va4b6gNFC_HV1zoVn-278" vertex="1">
          <mxGeometry y="104" width="360" height="26" as="geometry" />
        </mxCell>
        <mxCell id="7A8Va4b6gNFC_HV1zoVn-283" value="- List&lt;ZonaDeCobertura&gt; zonas" style="text;strokeColor=none;fillColor=none;align=left;verticalAlign=top;spacingLeft=4;spacingRight=4;overflow=hidden;rotatable=0;points=[[0,0.5],[1,0.5]];portConstraint=eastwest;" parent="7A8Va4b6gNFC_HV1zoVn-278" vertex="1">
          <mxGeometry y="130" width="360" height="26" as="geometry" />
        </mxCell>
        <mxCell id="7A8Va4b6gNFC_HV1zoVn-284" value="- FuncionalidadExterna funcionalidadNuevaMuestra" style="text;strokeColor=none;fillColor=none;align=left;verticalAlign=top;spacingLeft=4;spacingRight=4;overflow=hidden;rotatable=0;points=[[0,0.5],[1,0.5]];portConstraint=eastwest;" parent="7A8Va4b6gNFC_HV1zoVn-278" vertex="1">
          <mxGeometry y="156" width="360" height="26" as="geometry" />
        </mxCell>
        <mxCell id="7A8Va4b6gNFC_HV1zoVn-285" value="- FuncionalidadExterna funcionalidadValidacion" style="text;strokeColor=none;fillColor=none;align=left;verticalAlign=top;spacingLeft=4;spacingRight=4;overflow=hidden;rotatable=0;points=[[0,0.5],[1,0.5]];portConstraint=eastwest;" parent="7A8Va4b6gNFC_HV1zoVn-278" vertex="1">
          <mxGeometry y="182" width="360" height="26" as="geometry" />
        </mxCell>
        <mxCell id="7A8Va4b6gNFC_HV1zoVn-286" value="" style="line;strokeWidth=1;fillColor=none;align=left;verticalAlign=middle;spacingTop=-1;spacingLeft=3;spacingRight=3;rotatable=0;labelPosition=right;points=[];portConstraint=eastwest;" parent="7A8Va4b6gNFC_HV1zoVn-278" vertex="1">
          <mxGeometry y="208" width="360" height="8" as="geometry" />
        </mxCell>
        <mxCell id="7A8Va4b6gNFC_HV1zoVn-287" value="+ Organizacion(String, Ubicacion, TipoOrganizacion, int)" style="text;strokeColor=none;fillColor=none;align=left;verticalAlign=top;spacingLeft=4;spacingRight=4;overflow=hidden;rotatable=0;points=[[0,0.5],[1,0.5]];portConstraint=eastwest;" parent="7A8Va4b6gNFC_HV1zoVn-278" vertex="1">
          <mxGeometry y="216" width="360" height="26" as="geometry" />
        </mxCell>
        <mxCell id="7A8Va4b6gNFC_HV1zoVn-288" value="+ void agregarZona(ZonaDeCobertura)" style="text;strokeColor=none;fillColor=none;align=left;verticalAlign=top;spacingLeft=4;spacingRight=4;overflow=hidden;rotatable=0;points=[[0,0.5],[1,0.5]];portConstraint=eastwest;" parent="7A8Va4b6gNFC_HV1zoVn-278" vertex="1">
          <mxGeometry y="242" width="360" height="26" as="geometry" />
        </mxCell>
        <mxCell id="7A8Va4b6gNFC_HV1zoVn-289" value="+ void setFuncionalidadNuevaMuestra(FuncionalidadExterna)" style="text;strokeColor=none;fillColor=none;align=left;verticalAlign=top;spacingLeft=4;spacingRight=4;overflow=hidden;rotatable=0;points=[[0,0.5],[1,0.5]];portConstraint=eastwest;" parent="7A8Va4b6gNFC_HV1zoVn-278" vertex="1">
          <mxGeometry y="268" width="360" height="26" as="geometry" />
        </mxCell>
        <mxCell id="7A8Va4b6gNFC_HV1zoVn-290" value="+ void setFuncionalidadValidacion(FuncionalidadExterna)" style="text;strokeColor=none;fillColor=none;align=left;verticalAlign=top;spacingLeft=4;spacingRight=4;overflow=hidden;rotatable=0;points=[[0,0.5],[1,0.5]];portConstraint=eastwest;" parent="7A8Va4b6gNFC_HV1zoVn-278" vertex="1">
          <mxGeometry y="294" width="360" height="26" as="geometry" />
        </mxCell>
        <mxCell id="7A8Va4b6gNFC_HV1zoVn-291" value="+ void notificarNuevaMuestra(ZonaDeCobertura, Muestra)" style="text;strokeColor=none;fillColor=none;align=left;verticalAlign=top;spacingLeft=4;spacingRight=4;overflow=hidden;rotatable=0;points=[[0,0.5],[1,0.5]];portConstraint=eastwest;" parent="7A8Va4b6gNFC_HV1zoVn-278" vertex="1">
          <mxGeometry y="320" width="360" height="26" as="geometry" />
        </mxCell>
        <mxCell id="7A8Va4b6gNFC_HV1zoVn-292" value="+ void notificarValidacion(ZonaDeCobertura, Muestra)" style="text;strokeColor=none;fillColor=none;align=left;verticalAlign=top;spacingLeft=4;spacingRight=4;overflow=hidden;rotatable=0;points=[[0,0.5],[1,0.5]];portConstraint=eastwest;" parent="7A8Va4b6gNFC_HV1zoVn-278" vertex="1">
          <mxGeometry y="346" width="360" height="26" as="geometry" />
        </mxCell>
        <mxCell id="7A8Va4b6gNFC_HV1zoVn-293" value="+ String getNombre()" style="text;strokeColor=none;fillColor=none;align=left;verticalAlign=top;spacingLeft=4;spacingRight=4;overflow=hidden;rotatable=0;points=[[0,0.5],[1,0.5]];portConstraint=eastwest;" parent="7A8Va4b6gNFC_HV1zoVn-278" vertex="1">
          <mxGeometry y="372" width="360" height="26" as="geometry" />
        </mxCell>
        <mxCell id="7A8Va4b6gNFC_HV1zoVn-294" value="+ Ubicacion getUbicacion()" style="text;strokeColor=none;fillColor=none;align=left;verticalAlign=top;spacingLeft=4;spacingRight=4;overflow=hidden;rotatable=0;points=[[0,0.5],[1,0.5]];portConstraint=eastwest;" parent="7A8Va4b6gNFC_HV1zoVn-278" vertex="1">
          <mxGeometry y="398" width="360" height="26" as="geometry" />
        </mxCell>
        <mxCell id="7A8Va4b6gNFC_HV1zoVn-295" value="+ TipoOrganizacion getTipo()" style="text;strokeColor=none;fillColor=none;align=left;verticalAlign=top;spacingLeft=4;spacingRight=4;overflow=hidden;rotatable=0;points=[[0,0.5],[1,0.5]];portConstraint=eastwest;" parent="7A8Va4b6gNFC_HV1zoVn-278" vertex="1">
          <mxGeometry y="424" width="360" height="26" as="geometry" />
        </mxCell>
        <mxCell id="7A8Va4b6gNFC_HV1zoVn-296" value="+ int getCantidadEmpleados()" style="text;strokeColor=none;fillColor=none;align=left;verticalAlign=top;spacingLeft=4;spacingRight=4;overflow=hidden;rotatable=0;points=[[0,0.5],[1,0.5]];portConstraint=eastwest;" parent="7A8Va4b6gNFC_HV1zoVn-278" vertex="1">
          <mxGeometry y="450" width="360" height="26" as="geometry" />
        </mxCell>
        <mxCell id="7A8Va4b6gNFC_HV1zoVn-297" value="+ List&lt;ZonaDeCobertura&gt; getZonas()" style="text;strokeColor=none;fillColor=none;align=left;verticalAlign=top;spacingLeft=4;spacingRight=4;overflow=hidden;rotatable=0;points=[[0,0.5],[1,0.5]];portConstraint=eastwest;" parent="7A8Va4b6gNFC_HV1zoVn-278" vertex="1">
          <mxGeometry y="476" width="360" height="26" as="geometry" />
        </mxCell>
        <mxCell id="7A8Va4b6gNFC_HV1zoVn-298" value="FuncionalidadExterna" style="swimlane;fontStyle=1;childLayout=stackLayout;horizontal=1;startSize=26;horizontalStack=0;resizeParent=1;resizeParentMax=0;resizeLast=0;collapsible=1;marginBottom=0;" parent="1" vertex="1">
          <mxGeometry x="1060" y="2072" width="360" height="52" as="geometry" />
        </mxCell>
        <mxCell id="7A8Va4b6gNFC_HV1zoVn-299" value="+ void nuevoEvento(Organizacion, ZonaDeCobertura, Muestra)" style="text;strokeColor=none;fillColor=none;align=left;verticalAlign=top;spacingLeft=4;spacingRight=4;overflow=hidden;rotatable=0;points=[[0,0.5],[1,0.5]];portConstraint=eastwest;" parent="7A8Va4b6gNFC_HV1zoVn-298" vertex="1">
          <mxGeometry y="26" width="360" height="26" as="geometry" />
        </mxCell>
        <mxCell id="l0Ft_y2nDenR8gbpTLfR-1" value="implementa" style="edgeStyle=orthogonalEdgeStyle;rounded=0;orthogonalLoop=1;jettySize=auto;html=1;exitX=0.5;exitY=1;exitDx=0;exitDy=0;entryX=1;entryY=0.5;entryDx=0;entryDy=0;dashed=1;endArrow=none;startFill=0;startArrow=block;" parent="1" source="7A8Va4b6gNFC_HV1zoVn-300" target="7A8Va4b6gNFC_HV1zoVn-289" edge="1">
          <mxGeometry relative="1" as="geometry" />
        </mxCell>
        <mxCell id="7A8Va4b6gNFC_HV1zoVn-300" value="ZonaObserver" style="swimlane;fontStyle=3;childLayout=stackLayout;horizontal=1;startSize=26;horizontalStack=0;resizeParent=1;resizeParentMax=0;resizeLast=0;collapsible=1;marginBottom=0;" parent="1" vertex="1">
          <mxGeometry x="2170" y="1344" width="340" height="78" as="geometry" />
        </mxCell>
        <mxCell id="7A8Va4b6gNFC_HV1zoVn-301" value="+ void notificarNuevaMuestra(ZonaDeCobertura, Muestra)" style="text;strokeColor=none;fillColor=none;align=left;verticalAlign=top;spacingLeft=4;spacingRight=4;overflow=hidden;rotatable=0;points=[[0,0.5],[1,0.5]];portConstraint=eastwest;" parent="7A8Va4b6gNFC_HV1zoVn-300" vertex="1">
          <mxGeometry y="26" width="340" height="26" as="geometry" />
        </mxCell>
        <mxCell id="7A8Va4b6gNFC_HV1zoVn-302" value="+ void notificarValidacion(ZonaDeCobertura, Muestra)" style="text;strokeColor=none;fillColor=none;align=left;verticalAlign=top;spacingLeft=4;spacingRight=4;overflow=hidden;rotatable=0;points=[[0,0.5],[1,0.5]];portConstraint=eastwest;" parent="7A8Va4b6gNFC_HV1zoVn-300" vertex="1">
          <mxGeometry y="52" width="340" height="26" as="geometry" />
        </mxCell>
        <mxCell id="7A8Va4b6gNFC_HV1zoVn-391" style="edgeStyle=orthogonalEdgeStyle;rounded=0;orthogonalLoop=1;jettySize=auto;html=1;exitX=0.75;exitY=0;exitDx=0;exitDy=0;endArrow=none;startFill=1;startArrow=classic;" parent="1" source="7A8Va4b6gNFC_HV1zoVn-303" edge="1">
          <mxGeometry relative="1" as="geometry">
            <mxPoint x="623" y="1600" as="targetPoint" />
          </mxGeometry>
        </mxCell>
        <mxCell id="7A8Va4b6gNFC_HV1zoVn-303" value="Ubicacion" style="swimlane;fontStyle=1;childLayout=stackLayout;horizontal=1;startSize=26;horizontalStack=0;resizeParent=1;resizeParentMax=0;resizeLast=0;collapsible=1;marginBottom=0;" parent="1" vertex="1">
          <mxGeometry x="480" y="1834" width="220" height="290" as="geometry" />
        </mxCell>
        <mxCell id="7A8Va4b6gNFC_HV1zoVn-304" value="- double latitud" style="text;strokeColor=none;fillColor=none;align=left;verticalAlign=top;spacingLeft=4;spacingRight=4;overflow=hidden;rotatable=0;points=[[0,0.5],[1,0.5]];portConstraint=eastwest;" parent="7A8Va4b6gNFC_HV1zoVn-303" vertex="1">
          <mxGeometry y="26" width="220" height="26" as="geometry" />
        </mxCell>
        <mxCell id="7A8Va4b6gNFC_HV1zoVn-305" value="- double longitud" style="text;strokeColor=none;fillColor=none;align=left;verticalAlign=top;spacingLeft=4;spacingRight=4;overflow=hidden;rotatable=0;points=[[0,0.5],[1,0.5]];portConstraint=eastwest;" parent="7A8Va4b6gNFC_HV1zoVn-303" vertex="1">
          <mxGeometry y="52" width="220" height="26" as="geometry" />
        </mxCell>
        <mxCell id="dMVTZBA2ObA4GUsqTA2Y-16" value="- CalculadoraDistancia calculadora" style="text;html=1;align=left;verticalAlign=middle;resizable=0;points=[];autosize=1;strokeColor=none;fillColor=none;" vertex="1" parent="7A8Va4b6gNFC_HV1zoVn-303">
          <mxGeometry y="78" width="220" height="30" as="geometry" />
        </mxCell>
        <mxCell id="7A8Va4b6gNFC_HV1zoVn-306" value="" style="line;strokeWidth=1;fillColor=none;align=left;verticalAlign=middle;spacingTop=-1;spacingLeft=3;spacingRight=3;rotatable=0;labelPosition=right;points=[];portConstraint=eastwest;" parent="7A8Va4b6gNFC_HV1zoVn-303" vertex="1">
          <mxGeometry y="108" width="220" height="8" as="geometry" />
        </mxCell>
        <mxCell id="dMVTZBA2ObA4GUsqTA2Y-14" style="edgeStyle=orthogonalEdgeStyle;rounded=0;orthogonalLoop=1;jettySize=auto;html=1;exitX=0;exitY=0.5;exitDx=0;exitDy=0;endArrow=none;startFill=0;dashed=1;" edge="1" parent="7A8Va4b6gNFC_HV1zoVn-303" source="7A8Va4b6gNFC_HV1zoVn-307">
          <mxGeometry relative="1" as="geometry">
            <mxPoint x="-60" y="86" as="targetPoint" />
          </mxGeometry>
        </mxCell>
        <mxCell id="7A8Va4b6gNFC_HV1zoVn-307" value="+ Ubicacion(Double, Double,Â &#xa;CalculadoraDistancia)" style="text;strokeColor=none;fillColor=none;align=left;verticalAlign=top;spacingLeft=4;spacingRight=4;overflow=hidden;rotatable=0;points=[[0,0.5],[1,0.5]];portConstraint=eastwest;" parent="7A8Va4b6gNFC_HV1zoVn-303" vertex="1">
          <mxGeometry y="116" width="220" height="44" as="geometry" />
        </mxCell>
        <mxCell id="7A8Va4b6gNFC_HV1zoVn-308" value="+ Double getLatitud()" style="text;strokeColor=none;fillColor=none;align=left;verticalAlign=top;spacingLeft=4;spacingRight=4;overflow=hidden;rotatable=0;points=[[0,0.5],[1,0.5]];portConstraint=eastwest;" parent="7A8Va4b6gNFC_HV1zoVn-303" vertex="1">
          <mxGeometry y="160" width="220" height="26" as="geometry" />
        </mxCell>
        <mxCell id="7A8Va4b6gNFC_HV1zoVn-309" value="+ Double getLongitud()" style="text;strokeColor=none;fillColor=none;align=left;verticalAlign=top;spacingLeft=4;spacingRight=4;overflow=hidden;rotatable=0;points=[[0,0.5],[1,0.5]];portConstraint=eastwest;" parent="7A8Va4b6gNFC_HV1zoVn-303" vertex="1">
          <mxGeometry y="186" width="220" height="26" as="geometry" />
        </mxCell>
        <mxCell id="dMVTZBA2ObA4GUsqTA2Y-17" value="+List &amp;lt;Ubicacion&amp;gt;ubicacionesCercanas&lt;div&gt;(List&amp;lt;Ubicacion&amp;gt;, double)&lt;/div&gt;" style="text;html=1;align=center;verticalAlign=middle;resizable=0;points=[];autosize=1;strokeColor=none;fillColor=none;" vertex="1" parent="7A8Va4b6gNFC_HV1zoVn-303">
          <mxGeometry y="212" width="220" height="40" as="geometry" />
        </mxCell>
        <mxCell id="7A8Va4b6gNFC_HV1zoVn-310" value="+ double distanciaA(Ubicacion)" style="text;strokeColor=none;fillColor=none;align=left;verticalAlign=top;spacingLeft=4;spacingRight=4;overflow=hidden;rotatable=0;points=[[0,0.5],[1,0.5]];portConstraint=eastwest;" parent="7A8Va4b6gNFC_HV1zoVn-303" vertex="1">
          <mxGeometry y="252" width="220" height="38" as="geometry" />
        </mxCell>
        <mxCell id="dMVTZBA2ObA4GUsqTA2Y-13" value="implementa" style="edgeStyle=orthogonalEdgeStyle;rounded=0;orthogonalLoop=1;jettySize=auto;html=1;exitX=0.5;exitY=0;exitDx=0;exitDy=0;entryX=0.5;entryY=1;entryDx=0;entryDy=0;endArrow=block;endFill=0;dashed=1;" edge="1" parent="1" source="7A8Va4b6gNFC_HV1zoVn-329" target="dMVTZBA2ObA4GUsqTA2Y-9">
          <mxGeometry relative="1" as="geometry">
            <mxPoint x="-155" y="190" as="targetPoint" />
          </mxGeometry>
        </mxCell>
        <mxCell id="7A8Va4b6gNFC_HV1zoVn-329" value="Calculadora" style="swimlane;fontStyle=1;childLayout=stackLayout;horizontal=1;startSize=26;horizontalStack=0;resizeParent=1;resizeParentMax=0;resizeLast=0;collapsible=1;marginBottom=0;" parent="1" vertex="1">
          <mxGeometry x="-385" y="310" width="450" height="138" as="geometry" />
        </mxCell>
        <mxCell id="7A8Va4b6gNFC_HV1zoVn-330" value="- static Double radioTierra" style="text;strokeColor=none;fillColor=none;align=left;verticalAlign=top;spacingLeft=4;spacingRight=4;overflow=hidden;rotatable=0;points=[[0,0.5],[1,0.5]];portConstraint=eastwest;" parent="7A8Va4b6gNFC_HV1zoVn-329" vertex="1">
          <mxGeometry y="26" width="450" height="26" as="geometry" />
        </mxCell>
        <mxCell id="7A8Va4b6gNFC_HV1zoVn-331" value="" style="line;strokeWidth=1;fillColor=none;align=left;verticalAlign=middle;spacingTop=-1;spacingLeft=3;spacingRight=3;rotatable=0;labelPosition=right;points=[];portConstraint=eastwest;" parent="7A8Va4b6gNFC_HV1zoVn-329" vertex="1">
          <mxGeometry y="52" width="450" height="8" as="geometry" />
        </mxCell>
        <mxCell id="7A8Va4b6gNFC_HV1zoVn-427" value="usa" style="edgeStyle=orthogonalEdgeStyle;rounded=0;orthogonalLoop=1;jettySize=auto;html=1;exitX=1;exitY=0.5;exitDx=0;exitDy=0;endArrow=none;startFill=0;endFill=1;startArrow=block;dashed=1;" parent="7A8Va4b6gNFC_HV1zoVn-329" source="7A8Va4b6gNFC_HV1zoVn-332" edge="1">
          <mxGeometry relative="1" as="geometry">
            <mxPoint x="805" y="1610" as="targetPoint" />
          </mxGeometry>
        </mxCell>
        <mxCell id="7A8Va4b6gNFC_HV1zoVn-332" value="+ static Double calcularDistanciaEntreUbicaciones(Ubicacion, Ubicacion)" style="text;strokeColor=none;fillColor=none;align=left;verticalAlign=top;spacingLeft=4;spacingRight=4;overflow=hidden;rotatable=0;points=[[0,0.5],[1,0.5]];portConstraint=eastwest;" parent="7A8Va4b6gNFC_HV1zoVn-329" vertex="1">
          <mxGeometry y="60" width="450" height="26" as="geometry" />
        </mxCell>
        <mxCell id="7A8Va4b6gNFC_HV1zoVn-333" value="+ static Boolean seSuperponenLasZonas(ZonaDeCobertura, ZonaDeCobertura)" style="text;strokeColor=none;fillColor=none;align=left;verticalAlign=top;spacingLeft=4;spacingRight=4;overflow=hidden;rotatable=0;points=[[0,0.5],[1,0.5]];portConstraint=eastwest;" parent="7A8Va4b6gNFC_HV1zoVn-329" vertex="1">
          <mxGeometry y="86" width="450" height="26" as="geometry" />
        </mxCell>
        <mxCell id="7A8Va4b6gNFC_HV1zoVn-334" value="+ static Boolean ubicacionEstaDentroDeZona(Ubicacion, ZonaDeCobertura)" style="text;strokeColor=none;fillColor=none;align=left;verticalAlign=top;spacingLeft=4;spacingRight=4;overflow=hidden;rotatable=0;points=[[0,0.5],[1,0.5]];portConstraint=eastwest;" parent="7A8Va4b6gNFC_HV1zoVn-329" vertex="1">
          <mxGeometry y="112" width="450" height="26" as="geometry" />
        </mxCell>
        <mxCell id="7A8Va4b6gNFC_HV1zoVn-335" value="BuscadorMuestra" style="swimlane;fontStyle=1;childLayout=stackLayout;horizontal=1;startSize=26;horizontalStack=0;resizeParent=1;resizeParentMax=0;resizeLast=0;collapsible=1;marginBottom=0;" parent="1" vertex="1">
          <mxGeometry x="-1070" y="590" width="270" height="52" as="geometry" />
        </mxCell>
        <mxCell id="7A8Va4b6gNFC_HV1zoVn-336" value="+ List&lt;Muestra&gt; buscar(List&lt;Muestra&gt;, Filtro)" style="text;strokeColor=none;fillColor=none;align=left;verticalAlign=top;spacingLeft=4;spacingRight=4;overflow=hidden;rotatable=0;points=[[0,0.5],[1,0.5]];portConstraint=eastwest;" parent="7A8Va4b6gNFC_HV1zoVn-335" vertex="1">
          <mxGeometry y="26" width="270" height="26" as="geometry" />
        </mxCell>
        <mxCell id="7A8Va4b6gNFC_HV1zoVn-423" style="edgeStyle=orthogonalEdgeStyle;rounded=0;orthogonalLoop=1;jettySize=auto;html=1;exitX=0.5;exitY=1;exitDx=0;exitDy=0;entryX=0.5;entryY=0;entryDx=0;entryDy=0;dashed=1;endArrow=none;startFill=0;startArrow=block;" parent="1" source="7A8Va4b6gNFC_HV1zoVn-337" target="7A8Va4b6gNFC_HV1zoVn-345" edge="1">
          <mxGeometry relative="1" as="geometry" />
        </mxCell>
        <mxCell id="7A8Va4b6gNFC_HV1zoVn-337" value="Filtro" style="swimlane;fontStyle=3;childLayout=stackLayout;horizontal=1;startSize=26;horizontalStack=0;resizeParent=1;resizeParentMax=0;resizeLast=0;collapsible=1;marginBottom=0;" parent="1" vertex="1">
          <mxGeometry x="-1430" y="890" width="170" height="52" as="geometry" />
        </mxCell>
        <mxCell id="7A8Va4b6gNFC_HV1zoVn-338" value="+ boolean aplica(Muestra)" style="text;strokeColor=none;fillColor=none;align=left;verticalAlign=top;spacingLeft=4;spacingRight=4;overflow=hidden;rotatable=0;points=[[0,0.5],[1,0.5]];portConstraint=eastwest;" parent="7A8Va4b6gNFC_HV1zoVn-337" vertex="1">
          <mxGeometry y="26" width="170" height="26" as="geometry" />
        </mxCell>
        <mxCell id="7A8Va4b6gNFC_HV1zoVn-339" value="FiltroAnd" style="swimlane;fontStyle=1;childLayout=stackLayout;horizontal=1;startSize=26;horizontalStack=0;resizeParent=1;resizeParentMax=0;resizeLast=0;collapsible=1;marginBottom=0;" parent="1" vertex="1">
          <mxGeometry x="-1760" y="1052" width="170" height="138" as="geometry" />
        </mxCell>
        <mxCell id="7A8Va4b6gNFC_HV1zoVn-340" value="- Filtro filtro1" style="text;strokeColor=none;fillColor=none;align=left;verticalAlign=top;spacingLeft=4;spacingRight=4;overflow=hidden;rotatable=0;points=[[0,0.5],[1,0.5]];portConstraint=eastwest;" parent="7A8Va4b6gNFC_HV1zoVn-339" vertex="1">
          <mxGeometry y="26" width="170" height="26" as="geometry" />
        </mxCell>
        <mxCell id="7A8Va4b6gNFC_HV1zoVn-341" value="- Filtro filtro2" style="text;strokeColor=none;fillColor=none;align=left;verticalAlign=top;spacingLeft=4;spacingRight=4;overflow=hidden;rotatable=0;points=[[0,0.5],[1,0.5]];portConstraint=eastwest;" parent="7A8Va4b6gNFC_HV1zoVn-339" vertex="1">
          <mxGeometry y="52" width="170" height="26" as="geometry" />
        </mxCell>
        <mxCell id="7A8Va4b6gNFC_HV1zoVn-342" value="" style="line;strokeWidth=1;fillColor=none;align=left;verticalAlign=middle;spacingTop=-1;spacingLeft=3;spacingRight=3;rotatable=0;labelPosition=right;points=[];portConstraint=eastwest;" parent="7A8Va4b6gNFC_HV1zoVn-339" vertex="1">
          <mxGeometry y="78" width="170" height="8" as="geometry" />
        </mxCell>
        <mxCell id="7A8Va4b6gNFC_HV1zoVn-343" value="+ FiltroAnd(Filtro, Filtro)" style="text;strokeColor=none;fillColor=none;align=left;verticalAlign=top;spacingLeft=4;spacingRight=4;overflow=hidden;rotatable=0;points=[[0,0.5],[1,0.5]];portConstraint=eastwest;" parent="7A8Va4b6gNFC_HV1zoVn-339" vertex="1">
          <mxGeometry y="86" width="170" height="26" as="geometry" />
        </mxCell>
        <mxCell id="7A8Va4b6gNFC_HV1zoVn-344" value="+ boolean aplica(Muestra)" style="text;strokeColor=none;fillColor=none;align=left;verticalAlign=top;spacingLeft=4;spacingRight=4;overflow=hidden;rotatable=0;points=[[0,0.5],[1,0.5]];portConstraint=eastwest;" parent="7A8Va4b6gNFC_HV1zoVn-339" vertex="1">
          <mxGeometry y="112" width="170" height="26" as="geometry" />
        </mxCell>
        <mxCell id="7A8Va4b6gNFC_HV1zoVn-345" value="FiltroOr" style="swimlane;fontStyle=1;childLayout=stackLayout;horizontal=1;startSize=26;horizontalStack=0;resizeParent=1;resizeParentMax=0;resizeLast=0;collapsible=1;marginBottom=0;" parent="1" vertex="1">
          <mxGeometry x="-1430" y="1052" width="170" height="138" as="geometry" />
        </mxCell>
        <mxCell id="7A8Va4b6gNFC_HV1zoVn-346" value="- Filtro filtro1" style="text;strokeColor=none;fillColor=none;align=left;verticalAlign=top;spacingLeft=4;spacingRight=4;overflow=hidden;rotatable=0;points=[[0,0.5],[1,0.5]];portConstraint=eastwest;" parent="7A8Va4b6gNFC_HV1zoVn-345" vertex="1">
          <mxGeometry y="26" width="170" height="26" as="geometry" />
        </mxCell>
        <mxCell id="7A8Va4b6gNFC_HV1zoVn-347" value="- Filtro filtro2" style="text;strokeColor=none;fillColor=none;align=left;verticalAlign=top;spacingLeft=4;spacingRight=4;overflow=hidden;rotatable=0;points=[[0,0.5],[1,0.5]];portConstraint=eastwest;" parent="7A8Va4b6gNFC_HV1zoVn-345" vertex="1">
          <mxGeometry y="52" width="170" height="26" as="geometry" />
        </mxCell>
        <mxCell id="7A8Va4b6gNFC_HV1zoVn-348" value="" style="line;strokeWidth=1;fillColor=none;align=left;verticalAlign=middle;spacingTop=-1;spacingLeft=3;spacingRight=3;rotatable=0;labelPosition=right;points=[];portConstraint=eastwest;" parent="7A8Va4b6gNFC_HV1zoVn-345" vertex="1">
          <mxGeometry y="78" width="170" height="8" as="geometry" />
        </mxCell>
        <mxCell id="7A8Va4b6gNFC_HV1zoVn-349" value="+ FiltroOr(Filtro, Filtro)" style="text;strokeColor=none;fillColor=none;align=left;verticalAlign=top;spacingLeft=4;spacingRight=4;overflow=hidden;rotatable=0;points=[[0,0.5],[1,0.5]];portConstraint=eastwest;" parent="7A8Va4b6gNFC_HV1zoVn-345" vertex="1">
          <mxGeometry y="86" width="170" height="26" as="geometry" />
        </mxCell>
        <mxCell id="7A8Va4b6gNFC_HV1zoVn-350" value="+ boolean aplica(Muestra)" style="text;strokeColor=none;fillColor=none;align=left;verticalAlign=top;spacingLeft=4;spacingRight=4;overflow=hidden;rotatable=0;points=[[0,0.5],[1,0.5]];portConstraint=eastwest;" parent="7A8Va4b6gNFC_HV1zoVn-345" vertex="1">
          <mxGeometry y="112" width="170" height="26" as="geometry" />
        </mxCell>
        <mxCell id="7A8Va4b6gNFC_HV1zoVn-420" style="edgeStyle=orthogonalEdgeStyle;rounded=0;orthogonalLoop=1;jettySize=auto;html=1;exitX=0.5;exitY=0;exitDx=0;exitDy=0;entryX=1;entryY=0.5;entryDx=0;entryDy=0;dashed=1;endArrow=block;endFill=0;" parent="1" source="7A8Va4b6gNFC_HV1zoVn-351" target="7A8Va4b6gNFC_HV1zoVn-337" edge="1">
          <mxGeometry relative="1" as="geometry" />
        </mxCell>
        <mxCell id="7A8Va4b6gNFC_HV1zoVn-351" value="FiltroTipoInsecto" style="swimlane;fontStyle=1;childLayout=stackLayout;horizontal=1;startSize=26;horizontalStack=0;resizeParent=1;resizeParentMax=0;resizeLast=0;collapsible=1;marginBottom=0;" parent="1" vertex="1">
          <mxGeometry x="-1160" y="1052" width="240" height="112" as="geometry" />
        </mxCell>
        <mxCell id="7A8Va4b6gNFC_HV1zoVn-352" value="- TipoOpinion tipoBuscado" style="text;strokeColor=none;fillColor=none;align=left;verticalAlign=top;spacingLeft=4;spacingRight=4;overflow=hidden;rotatable=0;points=[[0,0.5],[1,0.5]];portConstraint=eastwest;" parent="7A8Va4b6gNFC_HV1zoVn-351" vertex="1">
          <mxGeometry y="26" width="240" height="26" as="geometry" />
        </mxCell>
        <mxCell id="7A8Va4b6gNFC_HV1zoVn-353" value="" style="line;strokeWidth=1;fillColor=none;align=left;verticalAlign=middle;spacingTop=-1;spacingLeft=3;spacingRight=3;rotatable=0;labelPosition=right;points=[];portConstraint=eastwest;" parent="7A8Va4b6gNFC_HV1zoVn-351" vertex="1">
          <mxGeometry y="52" width="240" height="8" as="geometry" />
        </mxCell>
        <mxCell id="7A8Va4b6gNFC_HV1zoVn-431" value="tipoBuscado" style="edgeStyle=orthogonalEdgeStyle;rounded=0;orthogonalLoop=1;jettySize=auto;html=1;exitX=1;exitY=0.5;exitDx=0;exitDy=0;endArrow=none;startFill=0;" parent="7A8Va4b6gNFC_HV1zoVn-351" source="7A8Va4b6gNFC_HV1zoVn-354" edge="1">
          <mxGeometry relative="1" as="geometry">
            <mxPoint x="560" y="1918" as="targetPoint" />
          </mxGeometry>
        </mxCell>
        <mxCell id="7A8Va4b6gNFC_HV1zoVn-354" value="+ FiltroTipoInsecto(TipoOpinion)" style="text;strokeColor=none;fillColor=none;align=left;verticalAlign=top;spacingLeft=4;spacingRight=4;overflow=hidden;rotatable=0;points=[[0,0.5],[1,0.5]];portConstraint=eastwest;" parent="7A8Va4b6gNFC_HV1zoVn-351" vertex="1">
          <mxGeometry y="60" width="240" height="26" as="geometry" />
        </mxCell>
        <mxCell id="7A8Va4b6gNFC_HV1zoVn-355" value="+ boolean aplica(Muestra)" style="text;strokeColor=none;fillColor=none;align=left;verticalAlign=top;spacingLeft=4;spacingRight=4;overflow=hidden;rotatable=0;points=[[0,0.5],[1,0.5]];portConstraint=eastwest;" parent="7A8Va4b6gNFC_HV1zoVn-351" vertex="1">
          <mxGeometry y="86" width="240" height="26" as="geometry" />
        </mxCell>
        <mxCell id="7A8Va4b6gNFC_HV1zoVn-357" value="ubicacion" style="edgeStyle=orthogonalEdgeStyle;rounded=0;orthogonalLoop=1;jettySize=auto;html=1;exitX=1;exitY=0.5;exitDx=0;exitDy=0;entryX=0.5;entryY=0;entryDx=0;entryDy=0;" parent="1" source="7A8Va4b6gNFC_HV1zoVn-195" target="7A8Va4b6gNFC_HV1zoVn-303" edge="1">
          <mxGeometry relative="1" as="geometry" />
        </mxCell>
        <mxCell id="7A8Va4b6gNFC_HV1zoVn-358" style="edgeStyle=orthogonalEdgeStyle;rounded=0;orthogonalLoop=1;jettySize=auto;html=1;exitX=0;exitY=0.5;exitDx=0;exitDy=0;entryX=0.5;entryY=0;entryDx=0;entryDy=0;" parent="1" source="7A8Va4b6gNFC_HV1zoVn-193" target="7A8Va4b6gNFC_HV1zoVn-251" edge="1">
          <mxGeometry relative="1" as="geometry" />
        </mxCell>
        <mxCell id="7A8Va4b6gNFC_HV1zoVn-445" value="autor" style="edgeLabel;html=1;align=center;verticalAlign=middle;resizable=0;points=[];" parent="7A8Va4b6gNFC_HV1zoVn-358" vertex="1" connectable="0">
          <mxGeometry x="0.359" y="5" relative="1" as="geometry">
            <mxPoint as="offset" />
          </mxGeometry>
        </mxCell>
        <mxCell id="7A8Va4b6gNFC_HV1zoVn-359" value="muestras *" style="edgeStyle=orthogonalEdgeStyle;rounded=0;orthogonalLoop=1;jettySize=auto;html=1;exitX=-0.002;exitY=0.786;exitDx=0;exitDy=0;entryX=0.5;entryY=0;entryDx=0;entryDy=0;exitPerimeter=0;" parent="1" source="dMVTZBA2ObA4GUsqTA2Y-38" target="7A8Va4b6gNFC_HV1zoVn-184" edge="1">
          <mxGeometry x="-0.0003" relative="1" as="geometry">
            <mxPoint as="offset" />
            <mxPoint x="1429.999999999999" y="898.9999999999998" as="sourcePoint" />
          </mxGeometry>
        </mxCell>
        <mxCell id="7A8Va4b6gNFC_HV1zoVn-362" value="EstadoAbierta" style="swimlane;fontStyle=1;childLayout=stackLayout;horizontal=1;startSize=26;horizontalStack=0;resizeParent=1;resizeParentMax=0;resizeLast=0;collapsible=1;marginBottom=0;" parent="1" vertex="1">
          <mxGeometry x="-370" y="2522.5" width="260" height="130" as="geometry" />
        </mxCell>
        <mxCell id="7A8Va4b6gNFC_HV1zoVn-363" value="+ boolean esAbierta()" style="text;strokeColor=none;fillColor=none;align=left;verticalAlign=top;spacingLeft=4;spacingRight=4;overflow=hidden;rotatable=0;points=[[0,0.5],[1,0.5]];portConstraint=eastwest;" parent="7A8Va4b6gNFC_HV1zoVn-362" vertex="1">
          <mxGeometry y="26" width="260" height="26" as="geometry" />
        </mxCell>
        <mxCell id="7A8Va4b6gNFC_HV1zoVn-364" value="+ void agregarOpinion(Muestra, Opinion)" style="text;strokeColor=none;fillColor=none;align=left;verticalAlign=top;spacingLeft=4;spacingRight=4;overflow=hidden;rotatable=0;points=[[0,0.5],[1,0.5]];portConstraint=eastwest;" parent="7A8Va4b6gNFC_HV1zoVn-362" vertex="1">
          <mxGeometry y="52" width="260" height="26" as="geometry" />
        </mxCell>
        <mxCell id="7A8Va4b6gNFC_HV1zoVn-365" value="+ String getNombreEstado()" style="text;strokeColor=none;fillColor=none;align=left;verticalAlign=top;spacingLeft=4;spacingRight=4;overflow=hidden;rotatable=0;points=[[0,0.5],[1,0.5]];portConstraint=eastwest;" parent="7A8Va4b6gNFC_HV1zoVn-362" vertex="1">
          <mxGeometry y="78" width="260" height="26" as="geometry" />
        </mxCell>
        <mxCell id="7A8Va4b6gNFC_HV1zoVn-366" value="+ TipoOpinion getResultadoActual(Muestra)" style="text;strokeColor=none;fillColor=none;align=left;verticalAlign=top;spacingLeft=4;spacingRight=4;overflow=hidden;rotatable=0;points=[[0,0.5],[1,0.5]];portConstraint=eastwest;" parent="7A8Va4b6gNFC_HV1zoVn-362" vertex="1">
          <mxGeometry y="104" width="260" height="26" as="geometry" />
        </mxCell>
        <mxCell id="7A8Va4b6gNFC_HV1zoVn-367" value="EstadoEnVerificacion" style="swimlane;fontStyle=1;childLayout=stackLayout;horizontal=1;startSize=26;horizontalStack=0;resizeParent=1;resizeParentMax=0;resizeLast=0;collapsible=1;marginBottom=0;" parent="1" vertex="1">
          <mxGeometry x="-65" y="2522.5" width="360" height="156" as="geometry" />
        </mxCell>
        <mxCell id="7A8Va4b6gNFC_HV1zoVn-368" value="+ boolean esEnVerificacion()" style="text;strokeColor=none;fillColor=none;align=left;verticalAlign=top;spacingLeft=4;spacingRight=4;overflow=hidden;rotatable=0;points=[[0,0.5],[1,0.5]];portConstraint=eastwest;" parent="7A8Va4b6gNFC_HV1zoVn-367" vertex="1">
          <mxGeometry y="26" width="360" height="26" as="geometry" />
        </mxCell>
        <mxCell id="7A8Va4b6gNFC_HV1zoVn-369" value="+ void agregarOpinion(Muestra, Opinion)" style="text;strokeColor=none;fillColor=none;align=left;verticalAlign=top;spacingLeft=4;spacingRight=4;overflow=hidden;rotatable=0;points=[[0,0.5],[1,0.5]];portConstraint=eastwest;" parent="7A8Va4b6gNFC_HV1zoVn-367" vertex="1">
          <mxGeometry y="52" width="360" height="26" as="geometry" />
        </mxCell>
        <mxCell id="7A8Va4b6gNFC_HV1zoVn-370" value="+ String getNombreEstado()" style="text;strokeColor=none;fillColor=none;align=left;verticalAlign=top;spacingLeft=4;spacingRight=4;overflow=hidden;rotatable=0;points=[[0,0.5],[1,0.5]];portConstraint=eastwest;" parent="7A8Va4b6gNFC_HV1zoVn-367" vertex="1">
          <mxGeometry y="78" width="360" height="26" as="geometry" />
        </mxCell>
        <mxCell id="7A8Va4b6gNFC_HV1zoVn-371" value="+ TipoOpinion getResultadoActual(Muestra)" style="text;strokeColor=none;fillColor=none;align=left;verticalAlign=top;spacingLeft=4;spacingRight=4;overflow=hidden;rotatable=0;points=[[0,0.5],[1,0.5]];portConstraint=eastwest;" parent="7A8Va4b6gNFC_HV1zoVn-367" vertex="1">
          <mxGeometry y="104" width="360" height="26" as="geometry" />
        </mxCell>
        <mxCell id="7A8Va4b6gNFC_HV1zoVn-372" value="+ boolean hayCoincidenciaDeExpertos(Muestra, TipoOpinion)" style="text;strokeColor=none;fillColor=none;align=left;verticalAlign=top;spacingLeft=4;spacingRight=4;overflow=hidden;rotatable=0;points=[[0,0.5],[1,0.5]];portConstraint=eastwest;" parent="7A8Va4b6gNFC_HV1zoVn-367" vertex="1">
          <mxGeometry y="130" width="360" height="26" as="geometry" />
        </mxCell>
        <mxCell id="7A8Va4b6gNFC_HV1zoVn-373" value="EstadoVerificada" style="swimlane;fontStyle=1;childLayout=stackLayout;horizontal=1;startSize=26;horizontalStack=0;resizeParent=1;resizeParentMax=0;resizeLast=0;collapsible=1;marginBottom=0;" parent="1" vertex="1">
          <mxGeometry x="340" y="2522.5" width="260" height="156" as="geometry" />
        </mxCell>
        <mxCell id="7A8Va4b6gNFC_HV1zoVn-374" value="+ boolean esVerificada()" style="text;strokeColor=none;fillColor=none;align=left;verticalAlign=top;spacingLeft=4;spacingRight=4;overflow=hidden;rotatable=0;points=[[0,0.5],[1,0.5]];portConstraint=eastwest;" parent="7A8Va4b6gNFC_HV1zoVn-373" vertex="1">
          <mxGeometry y="26" width="260" height="26" as="geometry" />
        </mxCell>
        <mxCell id="7A8Va4b6gNFC_HV1zoVn-375" value="+ void agregarOpinion(Muestra, Opinion)" style="text;strokeColor=none;fillColor=none;align=left;verticalAlign=top;spacingLeft=4;spacingRight=4;overflow=hidden;rotatable=0;points=[[0,0.5],[1,0.5]];portConstraint=eastwest;" parent="7A8Va4b6gNFC_HV1zoVn-373" vertex="1">
          <mxGeometry y="52" width="260" height="26" as="geometry" />
        </mxCell>
        <mxCell id="7A8Va4b6gNFC_HV1zoVn-376" value="+ void notificarSiVerificada(Muestra)" style="text;strokeColor=none;fillColor=none;align=left;verticalAlign=top;spacingLeft=4;spacingRight=4;overflow=hidden;rotatable=0;points=[[0,0.5],[1,0.5]];portConstraint=eastwest;" parent="7A8Va4b6gNFC_HV1zoVn-373" vertex="1">
          <mxGeometry y="78" width="260" height="26" as="geometry" />
        </mxCell>
        <mxCell id="7A8Va4b6gNFC_HV1zoVn-377" value="+ String getNombreEstado()" style="text;strokeColor=none;fillColor=none;align=left;verticalAlign=top;spacingLeft=4;spacingRight=4;overflow=hidden;rotatable=0;points=[[0,0.5],[1,0.5]];portConstraint=eastwest;" parent="7A8Va4b6gNFC_HV1zoVn-373" vertex="1">
          <mxGeometry y="104" width="260" height="26" as="geometry" />
        </mxCell>
        <mxCell id="7A8Va4b6gNFC_HV1zoVn-378" value="+ TipoOpinion getResultadoActual(Muestra)" style="text;strokeColor=none;fillColor=none;align=left;verticalAlign=top;spacingLeft=4;spacingRight=4;overflow=hidden;rotatable=0;points=[[0,0.5],[1,0.5]];portConstraint=eastwest;" parent="7A8Va4b6gNFC_HV1zoVn-373" vertex="1">
          <mxGeometry y="130" width="260" height="26" as="geometry" />
        </mxCell>
        <mxCell id="7A8Va4b6gNFC_HV1zoVn-379" value="observadores *" style="edgeStyle=orthogonalEdgeStyle;rounded=0;orthogonalLoop=1;jettySize=auto;html=1;exitX=1;exitY=0.5;exitDx=0;exitDy=0;entryX=0;entryY=0.5;entryDx=0;entryDy=0;" parent="1" source="7A8Va4b6gNFC_HV1zoVn-185" target="7A8Va4b6gNFC_HV1zoVn-238" edge="1">
          <mxGeometry relative="1" as="geometry" />
        </mxCell>
        <mxCell id="7A8Va4b6gNFC_HV1zoVn-380" value="implementa" style="edgeStyle=orthogonalEdgeStyle;rounded=0;orthogonalLoop=1;jettySize=auto;html=1;exitX=0;exitY=0.5;exitDx=0;exitDy=0;dashed=1;endArrow=block;endFill=0;" parent="1" edge="1">
          <mxGeometry relative="1" as="geometry">
            <mxPoint x="970" y="1159" as="targetPoint" />
            <mxPoint x="1429.999999999999" y="1159" as="sourcePoint" />
          </mxGeometry>
        </mxCell>
        <mxCell id="7A8Va4b6gNFC_HV1zoVn-382" value="funcionalidadNuevaMuestra" style="edgeStyle=orthogonalEdgeStyle;rounded=0;orthogonalLoop=1;jettySize=auto;html=1;exitX=0;exitY=0.5;exitDx=0;exitDy=0;entryX=0.5;entryY=0;entryDx=0;entryDy=0;" parent="1" source="7A8Va4b6gNFC_HV1zoVn-293" target="7A8Va4b6gNFC_HV1zoVn-298" edge="1">
          <mxGeometry relative="1" as="geometry" />
        </mxCell>
        <mxCell id="7A8Va4b6gNFC_HV1zoVn-384" value="funcionalidadValidacion" style="edgeStyle=orthogonalEdgeStyle;rounded=0;orthogonalLoop=1;jettySize=auto;html=1;exitX=0;exitY=0.5;exitDx=0;exitDy=0;entryX=0.75;entryY=0;entryDx=0;entryDy=0;" parent="1" source="7A8Va4b6gNFC_HV1zoVn-296" target="7A8Va4b6gNFC_HV1zoVn-298" edge="1">
          <mxGeometry relative="1" as="geometry" />
        </mxCell>
        <mxCell id="7A8Va4b6gNFC_HV1zoVn-385" style="edgeStyle=orthogonalEdgeStyle;rounded=0;orthogonalLoop=1;jettySize=auto;html=1;exitX=1;exitY=0.5;exitDx=0;exitDy=0;entryX=0.5;entryY=0;entryDx=0;entryDy=0;dashed=1;endArrow=none;startFill=0;startArrow=block;" parent="1" source="7A8Va4b6gNFC_HV1zoVn-246" target="7A8Va4b6gNFC_HV1zoVn-373" edge="1">
          <mxGeometry relative="1" as="geometry" />
        </mxCell>
        <mxCell id="7A8Va4b6gNFC_HV1zoVn-386" style="edgeStyle=orthogonalEdgeStyle;rounded=0;orthogonalLoop=1;jettySize=auto;html=1;exitX=0;exitY=0.5;exitDx=0;exitDy=0;entryX=0.5;entryY=0;entryDx=0;entryDy=0;dashed=1;startArrow=block;startFill=0;endArrow=none;" parent="1" source="7A8Va4b6gNFC_HV1zoVn-246" target="7A8Va4b6gNFC_HV1zoVn-362" edge="1">
          <mxGeometry relative="1" as="geometry" />
        </mxCell>
        <mxCell id="7A8Va4b6gNFC_HV1zoVn-390" value="epicentro" style="edgeStyle=orthogonalEdgeStyle;rounded=0;orthogonalLoop=1;jettySize=auto;html=1;exitX=0;exitY=0.5;exitDx=0;exitDy=0;endArrow=none;startFill=0;" parent="1" edge="1">
          <mxGeometry relative="1" as="geometry">
            <mxPoint x="1070" y="1600" as="targetPoint" />
            <mxPoint x="1429.999999999999" y="977" as="sourcePoint" />
          </mxGeometry>
        </mxCell>
        <mxCell id="7A8Va4b6gNFC_HV1zoVn-392" value="" style="endArrow=none;html=1;rounded=0;" parent="1" edge="1">
          <mxGeometry width="50" height="50" relative="1" as="geometry">
            <mxPoint x="620" y="1600" as="sourcePoint" />
            <mxPoint x="1070" y="1600" as="targetPoint" />
          </mxGeometry>
        </mxCell>
        <mxCell id="7A8Va4b6gNFC_HV1zoVn-395" value="especieInicial" style="edgeStyle=orthogonalEdgeStyle;rounded=0;orthogonalLoop=1;jettySize=auto;html=1;exitX=0;exitY=0.5;exitDx=0;exitDy=0;entryX=0.5;entryY=0;entryDx=0;entryDy=0;" parent="1" source="7A8Va4b6gNFC_HV1zoVn-210" target="7A8Va4b6gNFC_HV1zoVn-241" edge="1">
          <mxGeometry relative="1" as="geometry" />
        </mxCell>
        <mxCell id="7A8Va4b6gNFC_HV1zoVn-396" style="edgeStyle=orthogonalEdgeStyle;rounded=0;orthogonalLoop=1;jettySize=auto;html=1;exitX=1;exitY=0.5;exitDx=0;exitDy=0;entryX=1;entryY=0.5;entryDx=0;entryDy=0;" parent="1" source="7A8Va4b6gNFC_HV1zoVn-219" target="7A8Va4b6gNFC_HV1zoVn-269" edge="1">
          <mxGeometry relative="1" as="geometry" />
        </mxCell>
        <mxCell id="7A8Va4b6gNFC_HV1zoVn-397" value="revisiones *" style="edgeStyle=orthogonalEdgeStyle;rounded=0;orthogonalLoop=1;jettySize=auto;html=1;exitX=0;exitY=0.5;exitDx=0;exitDy=0;entryX=0;entryY=0.5;entryDx=0;entryDy=0;" parent="1" source="7A8Va4b6gNFC_HV1zoVn-269" target="7A8Va4b6gNFC_HV1zoVn-219" edge="1">
          <mxGeometry relative="1" as="geometry">
            <Array as="points">
              <mxPoint x="-1800" y="2223" />
              <mxPoint x="-1800" y="2540" />
            </Array>
          </mxGeometry>
        </mxCell>
        <mxCell id="7A8Va4b6gNFC_HV1zoVn-398" style="edgeStyle=orthogonalEdgeStyle;rounded=0;orthogonalLoop=1;jettySize=auto;html=1;exitX=0;exitY=0.5;exitDx=0;exitDy=0;entryX=1;entryY=0.5;entryDx=0;entryDy=0;" parent="1" source="7A8Va4b6gNFC_HV1zoVn-260" target="7A8Va4b6gNFC_HV1zoVn-230" edge="1">
          <mxGeometry relative="1" as="geometry" />
        </mxCell>
        <mxCell id="7A8Va4b6gNFC_HV1zoVn-402" value="EstadoBasico" style="swimlane;fontStyle=1;childLayout=stackLayout;horizontal=1;startSize=26;horizontalStack=0;resizeParent=1;resizeParentMax=0;resizeLast=0;collapsible=1;marginBottom=0;" parent="1" vertex="1">
          <mxGeometry x="-1300" y="2345" width="210" height="104" as="geometry" />
        </mxCell>
        <mxCell id="7A8Va4b6gNFC_HV1zoVn-403" value="+ boolean esExperto()" style="text;strokeColor=none;fillColor=none;align=left;verticalAlign=top;spacingLeft=4;spacingRight=4;overflow=hidden;rotatable=0;points=[[0,0.5],[1,0.5]];portConstraint=eastwest;" parent="7A8Va4b6gNFC_HV1zoVn-402" vertex="1">
          <mxGeometry y="26" width="210" height="26" as="geometry" />
        </mxCell>
        <mxCell id="7A8Va4b6gNFC_HV1zoVn-404" value="+ boolean esEspecialista()" style="text;strokeColor=none;fillColor=none;align=left;verticalAlign=top;spacingLeft=4;spacingRight=4;overflow=hidden;rotatable=0;points=[[0,0.5],[1,0.5]];portConstraint=eastwest;" parent="7A8Va4b6gNFC_HV1zoVn-402" vertex="1">
          <mxGeometry y="52" width="210" height="26" as="geometry" />
        </mxCell>
        <mxCell id="7A8Va4b6gNFC_HV1zoVn-405" value="+ void evaluarPromocion(Usuario)" style="text;strokeColor=none;fillColor=none;align=left;verticalAlign=top;spacingLeft=4;spacingRight=4;overflow=hidden;rotatable=0;points=[[0,0.5],[1,0.5]];portConstraint=eastwest;" parent="7A8Va4b6gNFC_HV1zoVn-402" vertex="1">
          <mxGeometry y="78" width="210" height="26" as="geometry" />
        </mxCell>
        <mxCell id="7A8Va4b6gNFC_HV1zoVn-417" style="edgeStyle=orthogonalEdgeStyle;rounded=0;orthogonalLoop=1;jettySize=auto;html=1;exitX=0.5;exitY=0;exitDx=0;exitDy=0;entryX=0.5;entryY=1;entryDx=0;entryDy=0;endArrow=block;endFill=0;dashed=1;" parent="1" source="7A8Va4b6gNFC_HV1zoVn-406" target="7A8Va4b6gNFC_HV1zoVn-274" edge="1">
          <mxGeometry relative="1" as="geometry">
            <mxPoint x="-965.3157894736842" y="2040" as="targetPoint" />
          </mxGeometry>
        </mxCell>
        <mxCell id="7A8Va4b6gNFC_HV1zoVn-406" value="EstadoExperto" style="swimlane;fontStyle=1;childLayout=stackLayout;horizontal=1;startSize=26;horizontalStack=0;resizeParent=1;resizeParentMax=0;resizeLast=0;collapsible=1;marginBottom=0;" parent="1" vertex="1">
          <mxGeometry x="-1080" y="2345" width="210" height="104" as="geometry" />
        </mxCell>
        <mxCell id="7A8Va4b6gNFC_HV1zoVn-407" value="+ boolean esExperto()" style="text;strokeColor=none;fillColor=none;align=left;verticalAlign=top;spacingLeft=4;spacingRight=4;overflow=hidden;rotatable=0;points=[[0,0.5],[1,0.5]];portConstraint=eastwest;" parent="7A8Va4b6gNFC_HV1zoVn-406" vertex="1">
          <mxGeometry y="26" width="210" height="26" as="geometry" />
        </mxCell>
        <mxCell id="7A8Va4b6gNFC_HV1zoVn-408" value="+ boolean esEspecialista()" style="text;strokeColor=none;fillColor=none;align=left;verticalAlign=top;spacingLeft=4;spacingRight=4;overflow=hidden;rotatable=0;points=[[0,0.5],[1,0.5]];portConstraint=eastwest;" parent="7A8Va4b6gNFC_HV1zoVn-406" vertex="1">
          <mxGeometry y="52" width="210" height="26" as="geometry" />
        </mxCell>
        <mxCell id="7A8Va4b6gNFC_HV1zoVn-409" value="+ void evaluarPromocion(Usuario)" style="text;strokeColor=none;fillColor=none;align=left;verticalAlign=top;spacingLeft=4;spacingRight=4;overflow=hidden;rotatable=0;points=[[0,0.5],[1,0.5]];portConstraint=eastwest;" parent="7A8Va4b6gNFC_HV1zoVn-406" vertex="1">
          <mxGeometry y="78" width="210" height="26" as="geometry" />
        </mxCell>
        <mxCell id="7A8Va4b6gNFC_HV1zoVn-410" value="EstadoEspecialista" style="swimlane;fontStyle=1;childLayout=stackLayout;horizontal=1;startSize=26;horizontalStack=0;resizeParent=1;resizeParentMax=0;resizeLast=0;collapsible=1;marginBottom=0;" parent="1" vertex="1">
          <mxGeometry x="-860" y="2345" width="210" height="104" as="geometry" />
        </mxCell>
        <mxCell id="7A8Va4b6gNFC_HV1zoVn-411" value="+ boolean esExperto()" style="text;strokeColor=none;fillColor=none;align=left;verticalAlign=top;spacingLeft=4;spacingRight=4;overflow=hidden;rotatable=0;points=[[0,0.5],[1,0.5]];portConstraint=eastwest;" parent="7A8Va4b6gNFC_HV1zoVn-410" vertex="1">
          <mxGeometry y="26" width="210" height="26" as="geometry" />
        </mxCell>
        <mxCell id="7A8Va4b6gNFC_HV1zoVn-412" value="+ boolean esEspecialista()" style="text;strokeColor=none;fillColor=none;align=left;verticalAlign=top;spacingLeft=4;spacingRight=4;overflow=hidden;rotatable=0;points=[[0,0.5],[1,0.5]];portConstraint=eastwest;" parent="7A8Va4b6gNFC_HV1zoVn-410" vertex="1">
          <mxGeometry y="52" width="210" height="26" as="geometry" />
        </mxCell>
        <mxCell id="7A8Va4b6gNFC_HV1zoVn-413" value="+ void evaluarPromocion(Usuario)" style="text;strokeColor=none;fillColor=none;align=left;verticalAlign=top;spacingLeft=4;spacingRight=4;overflow=hidden;rotatable=0;points=[[0,0.5],[1,0.5]];portConstraint=eastwest;" parent="7A8Va4b6gNFC_HV1zoVn-410" vertex="1">
          <mxGeometry y="78" width="210" height="26" as="geometry" />
        </mxCell>
        <mxCell id="7A8Va4b6gNFC_HV1zoVn-415" style="edgeStyle=orthogonalEdgeStyle;rounded=0;orthogonalLoop=1;jettySize=auto;html=1;exitX=1;exitY=0.5;exitDx=0;exitDy=0;entryX=0.5;entryY=0;entryDx=0;entryDy=0;dashed=1;endArrow=none;startFill=0;startArrow=block;" parent="1" source="7A8Va4b6gNFC_HV1zoVn-276" target="7A8Va4b6gNFC_HV1zoVn-410" edge="1">
          <mxGeometry relative="1" as="geometry" />
        </mxCell>
        <mxCell id="7A8Va4b6gNFC_HV1zoVn-416" style="edgeStyle=orthogonalEdgeStyle;rounded=0;orthogonalLoop=1;jettySize=auto;html=1;exitX=0;exitY=0.5;exitDx=0;exitDy=0;entryX=0.5;entryY=0;entryDx=0;entryDy=0;startArrow=block;startFill=0;endArrow=none;dashed=1;" parent="1" source="7A8Va4b6gNFC_HV1zoVn-276" target="7A8Va4b6gNFC_HV1zoVn-402" edge="1">
          <mxGeometry relative="1" as="geometry" />
        </mxCell>
        <mxCell id="7A8Va4b6gNFC_HV1zoVn-422" style="edgeStyle=orthogonalEdgeStyle;rounded=0;orthogonalLoop=1;jettySize=auto;html=1;exitX=0.5;exitY=0;exitDx=0;exitDy=0;entryX=-0.013;entryY=0.11;entryDx=0;entryDy=0;entryPerimeter=0;dashed=1;endArrow=block;endFill=0;" parent="1" source="7A8Va4b6gNFC_HV1zoVn-339" target="7A8Va4b6gNFC_HV1zoVn-338" edge="1">
          <mxGeometry relative="1" as="geometry" />
        </mxCell>
        <mxCell id="7A8Va4b6gNFC_HV1zoVn-425" value="usa" style="edgeStyle=orthogonalEdgeStyle;rounded=0;orthogonalLoop=1;jettySize=auto;html=1;exitX=0;exitY=0.5;exitDx=0;exitDy=0;entryX=0.5;entryY=0;entryDx=0;entryDy=0;dashed=1;endArrow=block;endFill=0;" parent="1" source="7A8Va4b6gNFC_HV1zoVn-336" target="7A8Va4b6gNFC_HV1zoVn-337" edge="1">
          <mxGeometry relative="1" as="geometry" />
        </mxCell>
        <mxCell id="7A8Va4b6gNFC_HV1zoVn-429" value="usa" style="edgeStyle=orthogonalEdgeStyle;rounded=0;orthogonalLoop=1;jettySize=auto;html=1;exitX=1;exitY=0.5;exitDx=0;exitDy=0;entryX=0.5;entryY=0;entryDx=0;entryDy=0;endArrow=none;endFill=0;startFill=0;startArrow=block;dashed=1;" parent="1" source="7A8Va4b6gNFC_HV1zoVn-330" target="dMVTZBA2ObA4GUsqTA2Y-18" edge="1">
          <mxGeometry relative="1" as="geometry">
            <mxPoint x="1574.999999999999" y="722" as="targetPoint" />
          </mxGeometry>
        </mxCell>
        <mxCell id="7A8Va4b6gNFC_HV1zoVn-436" value="" style="endArrow=none;html=1;rounded=0;" parent="1" edge="1">
          <mxGeometry width="50" height="50" relative="1" as="geometry">
            <mxPoint x="-440" y="2950" as="sourcePoint" />
            <mxPoint x="-440" y="2080" as="targetPoint" />
          </mxGeometry>
        </mxCell>
        <mxCell id="7A8Va4b6gNFC_HV1zoVn-437" value="resultadoVerificado" style="endArrow=none;html=1;rounded=0;" parent="1" edge="1">
          <mxGeometry width="50" height="50" relative="1" as="geometry">
            <mxPoint x="-440" y="2080" as="sourcePoint" />
            <mxPoint x="-170" y="2080" as="targetPoint" />
          </mxGeometry>
        </mxCell>
        <mxCell id="7A8Va4b6gNFC_HV1zoVn-440" value="muestra" style="endArrow=none;html=1;rounded=0;" parent="1" edge="1">
          <mxGeometry width="50" height="50" relative="1" as="geometry">
            <mxPoint x="-130" y="2160" as="sourcePoint" />
            <mxPoint x="-500" y="2160" as="targetPoint" />
          </mxGeometry>
        </mxCell>
        <mxCell id="7A8Va4b6gNFC_HV1zoVn-441" value="" style="endArrow=none;html=1;rounded=0;" parent="1" edge="1">
          <mxGeometry width="50" height="50" relative="1" as="geometry">
            <mxPoint x="-500" y="2630" as="sourcePoint" />
            <mxPoint x="-500" y="2160" as="targetPoint" />
          </mxGeometry>
        </mxCell>
        <mxCell id="l0Ft_y2nDenR8gbpTLfR-3" value="TipoOrganizacion" style="swimlane;fontStyle=1;childLayout=stackLayout;horizontal=1;startSize=26;horizontalStack=0;resizeParent=1;resizeParentMax=0;resizeLast=0;collapsible=1;marginBottom=0;" parent="1" vertex="1">
          <mxGeometry x="1720" y="2072" width="290" height="52" as="geometry" />
        </mxCell>
        <mxCell id="l0Ft_y2nDenR8gbpTLfR-4" value="SALUD, EDUCATIVA, CULTURAL, ASISTENCIA" style="text;strokeColor=none;fillColor=none;align=left;verticalAlign=top;spacingLeft=4;spacingRight=4;overflow=hidden;rotatable=0;points=[[0,0.5],[1,0.5]];portConstraint=eastwest;" parent="l0Ft_y2nDenR8gbpTLfR-3" vertex="1">
          <mxGeometry y="26" width="290" height="26" as="geometry" />
        </mxCell>
        <mxCell id="l0Ft_y2nDenR8gbpTLfR-5" style="edgeStyle=orthogonalEdgeStyle;rounded=0;orthogonalLoop=1;jettySize=auto;html=1;exitX=1;exitY=0.5;exitDx=0;exitDy=0;entryX=0.5;entryY=0;entryDx=0;entryDy=0;" parent="1" source="7A8Va4b6gNFC_HV1zoVn-295" target="l0Ft_y2nDenR8gbpTLfR-3" edge="1">
          <mxGeometry relative="1" as="geometry" />
        </mxCell>
        <mxCell id="l0Ft_y2nDenR8gbpTLfR-6" value="FiltroFechaCreacion" style="swimlane;fontStyle=1;childLayout=stackLayout;horizontal=1;startSize=26;horizontalStack=0;resizeParent=1;resizeParentMax=0;resizeLast=0;collapsible=1;marginBottom=0;" parent="1" vertex="1">
          <mxGeometry x="-1990" y="800" width="200" height="112" as="geometry" />
        </mxCell>
        <mxCell id="l0Ft_y2nDenR8gbpTLfR-7" value="- LocalDate fecha" style="text;strokeColor=none;fillColor=none;align=left;verticalAlign=top;spacingLeft=4;spacingRight=4;overflow=hidden;rotatable=0;points=[[0,0.5],[1,0.5]];portConstraint=eastwest;" parent="l0Ft_y2nDenR8gbpTLfR-6" vertex="1">
          <mxGeometry y="26" width="200" height="26" as="geometry" />
        </mxCell>
        <mxCell id="l0Ft_y2nDenR8gbpTLfR-8" value="" style="line;strokeWidth=1;fillColor=none;align=left;verticalAlign=middle;spacingTop=-1;spacingLeft=3;spacingRight=3;rotatable=0;labelPosition=right;points=[];portConstraint=eastwest;" parent="l0Ft_y2nDenR8gbpTLfR-6" vertex="1">
          <mxGeometry y="52" width="200" height="8" as="geometry" />
        </mxCell>
        <mxCell id="l0Ft_y2nDenR8gbpTLfR-9" value="+ FiltroFechaCreacion(LocalDate)" style="text;strokeColor=none;fillColor=none;align=left;verticalAlign=top;spacingLeft=4;spacingRight=4;overflow=hidden;rotatable=0;points=[[0,0.5],[1,0.5]];portConstraint=eastwest;" parent="l0Ft_y2nDenR8gbpTLfR-6" vertex="1">
          <mxGeometry y="60" width="200" height="26" as="geometry" />
        </mxCell>
        <mxCell id="l0Ft_y2nDenR8gbpTLfR-10" value="+ boolean aplica(Muestra)" style="text;strokeColor=none;fillColor=none;align=left;verticalAlign=top;spacingLeft=4;spacingRight=4;overflow=hidden;rotatable=0;points=[[0,0.5],[1,0.5]];portConstraint=eastwest;" parent="l0Ft_y2nDenR8gbpTLfR-6" vertex="1">
          <mxGeometry y="86" width="200" height="26" as="geometry" />
        </mxCell>
        <mxCell id="l0Ft_y2nDenR8gbpTLfR-21" style="edgeStyle=orthogonalEdgeStyle;rounded=0;orthogonalLoop=1;jettySize=auto;html=1;exitX=0.25;exitY=0;exitDx=0;exitDy=0;entryX=0.75;entryY=0;entryDx=0;entryDy=0;dashed=1;endArrow=block;endFill=0;" parent="1" source="l0Ft_y2nDenR8gbpTLfR-11" target="7A8Va4b6gNFC_HV1zoVn-337" edge="1">
          <mxGeometry relative="1" as="geometry" />
        </mxCell>
        <mxCell id="l0Ft_y2nDenR8gbpTLfR-11" value="FiltroFechaUltimaVotacion" style="swimlane;fontStyle=1;childLayout=stackLayout;horizontal=1;startSize=26;horizontalStack=0;resizeParent=1;resizeParentMax=0;resizeLast=0;collapsible=1;marginBottom=0;" parent="1" vertex="1">
          <mxGeometry x="-940" y="853" width="240" height="112" as="geometry" />
        </mxCell>
        <mxCell id="l0Ft_y2nDenR8gbpTLfR-12" value="- LocalDate fecha" style="text;strokeColor=none;fillColor=none;align=left;verticalAlign=top;spacingLeft=4;spacingRight=4;overflow=hidden;rotatable=0;points=[[0,0.5],[1,0.5]];portConstraint=eastwest;" parent="l0Ft_y2nDenR8gbpTLfR-11" vertex="1">
          <mxGeometry y="26" width="240" height="26" as="geometry" />
        </mxCell>
        <mxCell id="l0Ft_y2nDenR8gbpTLfR-13" value="" style="line;strokeWidth=1;fillColor=none;align=left;verticalAlign=middle;spacingTop=-1;spacingLeft=3;spacingRight=3;rotatable=0;labelPosition=right;points=[];portConstraint=eastwest;" parent="l0Ft_y2nDenR8gbpTLfR-11" vertex="1">
          <mxGeometry y="52" width="240" height="8" as="geometry" />
        </mxCell>
        <mxCell id="l0Ft_y2nDenR8gbpTLfR-14" value="+ FiltroFechaUltimaVotacion(LocalDate)" style="text;strokeColor=none;fillColor=none;align=left;verticalAlign=top;spacingLeft=4;spacingRight=4;overflow=hidden;rotatable=0;points=[[0,0.5],[1,0.5]];portConstraint=eastwest;" parent="l0Ft_y2nDenR8gbpTLfR-11" vertex="1">
          <mxGeometry y="60" width="240" height="26" as="geometry" />
        </mxCell>
        <mxCell id="l0Ft_y2nDenR8gbpTLfR-15" value="+ boolean aplica(Muestra)" style="text;strokeColor=none;fillColor=none;align=left;verticalAlign=top;spacingLeft=4;spacingRight=4;overflow=hidden;rotatable=0;points=[[0,0.5],[1,0.5]];portConstraint=eastwest;" parent="l0Ft_y2nDenR8gbpTLfR-11" vertex="1">
          <mxGeometry y="86" width="240" height="26" as="geometry" />
        </mxCell>
        <mxCell id="l0Ft_y2nDenR8gbpTLfR-22" style="edgeStyle=orthogonalEdgeStyle;rounded=0;orthogonalLoop=1;jettySize=auto;html=1;exitX=1;exitY=0.25;exitDx=0;exitDy=0;entryX=0.257;entryY=1.024;entryDx=0;entryDy=0;entryPerimeter=0;dashed=1;endArrow=block;endFill=0;" parent="1" source="l0Ft_y2nDenR8gbpTLfR-16" target="7A8Va4b6gNFC_HV1zoVn-338" edge="1">
          <mxGeometry relative="1" as="geometry">
            <mxPoint x="-1400" y="960" as="targetPoint" />
          </mxGeometry>
        </mxCell>
        <mxCell id="l0Ft_y2nDenR8gbpTLfR-16" value="FiltroVerificada" style="swimlane;fontStyle=1;childLayout=stackLayout;horizontal=1;startSize=26;horizontalStack=0;resizeParent=1;resizeParentMax=0;resizeLast=0;collapsible=1;marginBottom=0;" parent="1" vertex="1">
          <mxGeometry x="-1980" y="990" width="160" height="52" as="geometry" />
        </mxCell>
        <mxCell id="l0Ft_y2nDenR8gbpTLfR-17" value="+ boolean aplica(Muestra)" style="text;strokeColor=none;fillColor=none;align=left;verticalAlign=top;spacingLeft=4;spacingRight=4;overflow=hidden;rotatable=0;points=[[0,0.5],[1,0.5]];portConstraint=eastwest;" parent="l0Ft_y2nDenR8gbpTLfR-16" vertex="1">
          <mxGeometry y="26" width="160" height="26" as="geometry" />
        </mxCell>
        <mxCell id="l0Ft_y2nDenR8gbpTLfR-20" style="edgeStyle=orthogonalEdgeStyle;rounded=0;orthogonalLoop=1;jettySize=auto;html=1;exitX=1;exitY=0.5;exitDx=0;exitDy=0;entryX=0.25;entryY=0;entryDx=0;entryDy=0;dashed=1;endArrow=block;endFill=0;" parent="1" source="l0Ft_y2nDenR8gbpTLfR-18" target="7A8Va4b6gNFC_HV1zoVn-337" edge="1">
          <mxGeometry relative="1" as="geometry" />
        </mxCell>
        <mxCell id="l0Ft_y2nDenR8gbpTLfR-18" value="FiltroVotada" style="swimlane;fontStyle=1;childLayout=stackLayout;horizontal=1;startSize=26;horizontalStack=0;resizeParent=1;resizeParentMax=0;resizeLast=0;collapsible=1;marginBottom=0;" parent="1" vertex="1">
          <mxGeometry x="-1720" y="760" width="160" height="52" as="geometry" />
        </mxCell>
        <mxCell id="l0Ft_y2nDenR8gbpTLfR-19" value="+ boolean aplica(Muestra)" style="text;strokeColor=none;fillColor=none;align=left;verticalAlign=top;spacingLeft=4;spacingRight=4;overflow=hidden;rotatable=0;points=[[0,0.5],[1,0.5]];portConstraint=eastwest;" parent="l0Ft_y2nDenR8gbpTLfR-18" vertex="1">
          <mxGeometry y="26" width="160" height="26" as="geometry" />
        </mxCell>
        <mxCell id="l0Ft_y2nDenR8gbpTLfR-24" style="edgeStyle=orthogonalEdgeStyle;rounded=0;orthogonalLoop=1;jettySize=auto;html=1;exitX=1;exitY=0.5;exitDx=0;exitDy=0;entryX=0;entryY=0;entryDx=0;entryDy=0;dashed=1;endArrow=block;endFill=0;" parent="1" source="l0Ft_y2nDenR8gbpTLfR-7" target="7A8Va4b6gNFC_HV1zoVn-337" edge="1">
          <mxGeometry relative="1" as="geometry" />
        </mxCell>
        <mxCell id="dMVTZBA2ObA4GUsqTA2Y-9" value="CalculadoraDistancia" style="swimlane;fontStyle=3;childLayout=stackLayout;horizontal=1;startSize=26;horizontalStack=0;resizeParent=1;resizeParentMax=0;resizeLast=0;collapsible=1;marginBottom=0;" vertex="1" parent="1">
          <mxGeometry x="-370" y="80" width="420" height="104" as="geometry" />
        </mxCell>
        <mxCell id="dMVTZBA2ObA4GUsqTA2Y-10" value="+ double calcularDistanciaEntreUbicaciones(Ubicacion, Ubicacion)" style="text;strokeColor=none;fillColor=none;align=left;verticalAlign=top;spacingLeft=4;spacingRight=4;overflow=hidden;rotatable=0;points=[[0,0.5],[1,0.5]];portConstraint=eastwest;" vertex="1" parent="dMVTZBA2ObA4GUsqTA2Y-9">
          <mxGeometry y="26" width="420" height="26" as="geometry" />
        </mxCell>
        <mxCell id="dMVTZBA2ObA4GUsqTA2Y-11" value="+ boolean seSuperponenLasZonas(ZonaDeCobertura, ZonaDeCobertura)" style="text;strokeColor=none;fillColor=none;align=left;verticalAlign=top;spacingLeft=4;spacingRight=4;overflow=hidden;rotatable=0;points=[[0,0.5],[1,0.5]];portConstraint=eastwest;" vertex="1" parent="dMVTZBA2ObA4GUsqTA2Y-9">
          <mxGeometry y="52" width="420" height="26" as="geometry" />
        </mxCell>
        <mxCell id="dMVTZBA2ObA4GUsqTA2Y-12" value="+ boolean ubicacionEstaDentroDeZona(Ubicacion, ZonaDeCobertura)" style="text;strokeColor=none;fillColor=none;align=left;verticalAlign=top;spacingLeft=4;spacingRight=4;overflow=hidden;rotatable=0;points=[[0,0.5],[1,0.5]];portConstraint=eastwest;" vertex="1" parent="dMVTZBA2ObA4GUsqTA2Y-9">
          <mxGeometry y="78" width="420" height="26" as="geometry" />
        </mxCell>
        <mxCell id="dMVTZBA2ObA4GUsqTA2Y-18" value="ZonaDeCobertura" style="swimlane;fontStyle=1;childLayout=stackLayout;horizontal=1;startSize=26;horizontalStack=0;resizeParent=1;resizeParentMax=0;resizeLast=0;collapsible=1;marginBottom=0;" vertex="1" parent="1">
          <mxGeometry x="1430" y="720" width="380" height="520" as="geometry" />
        </mxCell>
        <mxCell id="dMVTZBA2ObA4GUsqTA2Y-19" value="- String nombre" style="text;strokeColor=none;fillColor=none;align=left;verticalAlign=top;spacingLeft=4;spacingRight=4;overflow=hidden;rotatable=0;points=[[0,0.5],[1,0.5]];portConstraint=eastwest;" vertex="1" parent="dMVTZBA2ObA4GUsqTA2Y-18">
          <mxGeometry y="26" width="380" height="26" as="geometry" />
        </mxCell>
        <mxCell id="dMVTZBA2ObA4GUsqTA2Y-20" value="- Ubicacion epicentro" style="text;strokeColor=none;fillColor=none;align=left;verticalAlign=top;spacingLeft=4;spacingRight=4;overflow=hidden;rotatable=0;points=[[0,0.5],[1,0.5]];portConstraint=eastwest;" vertex="1" parent="dMVTZBA2ObA4GUsqTA2Y-18">
          <mxGeometry y="52" width="380" height="26" as="geometry" />
        </mxCell>
        <mxCell id="dMVTZBA2ObA4GUsqTA2Y-21" value="- double radio" style="text;strokeColor=none;fillColor=none;align=left;verticalAlign=top;spacingLeft=4;spacingRight=4;overflow=hidden;rotatable=0;points=[[0,0.5],[1,0.5]];portConstraint=eastwest;" vertex="1" parent="dMVTZBA2ObA4GUsqTA2Y-18">
          <mxGeometry y="78" width="380" height="26" as="geometry" />
        </mxCell>
        <mxCell id="dMVTZBA2ObA4GUsqTA2Y-22" value="- List&lt;Muestra&gt; muestras" style="text;strokeColor=none;fillColor=none;align=left;verticalAlign=top;spacingLeft=4;spacingRight=4;overflow=hidden;rotatable=0;points=[[0,0.5],[1,0.5]];portConstraint=eastwest;" vertex="1" parent="dMVTZBA2ObA4GUsqTA2Y-18">
          <mxGeometry y="104" width="380" height="26" as="geometry" />
        </mxCell>
        <mxCell id="dMVTZBA2ObA4GUsqTA2Y-23" value="- List&lt;Organizacion&gt; organizacionesRegistradas" style="text;strokeColor=none;fillColor=none;align=left;verticalAlign=top;spacingLeft=4;spacingRight=4;overflow=hidden;rotatable=0;points=[[0,0.5],[1,0.5]];portConstraint=eastwest;" vertex="1" parent="dMVTZBA2ObA4GUsqTA2Y-18">
          <mxGeometry y="130" width="380" height="26" as="geometry" />
        </mxCell>
        <mxCell id="dMVTZBA2ObA4GUsqTA2Y-38" value="&amp;nbsp;- CalculadoraDistancia calculadora" style="text;html=1;align=left;verticalAlign=middle;resizable=0;points=[];autosize=1;strokeColor=none;fillColor=none;" vertex="1" parent="dMVTZBA2ObA4GUsqTA2Y-18">
          <mxGeometry y="156" width="380" height="30" as="geometry" />
        </mxCell>
        <mxCell id="dMVTZBA2ObA4GUsqTA2Y-24" value="" style="line;strokeWidth=1;fillColor=none;align=left;verticalAlign=middle;spacingTop=-1;spacingLeft=3;spacingRight=3;rotatable=0;labelPosition=right;points=[];portConstraint=eastwest;" vertex="1" parent="dMVTZBA2ObA4GUsqTA2Y-18">
          <mxGeometry y="186" width="380" height="8" as="geometry" />
        </mxCell>
        <mxCell id="dMVTZBA2ObA4GUsqTA2Y-25" value="+ ZonaDeCobertura(String, Ubicacion, double, CalculadoraDistancia)" style="text;strokeColor=none;fillColor=none;align=left;verticalAlign=top;spacingLeft=4;spacingRight=4;overflow=hidden;rotatable=0;points=[[0,0.5],[1,0.5]];portConstraint=eastwest;" vertex="1" parent="dMVTZBA2ObA4GUsqTA2Y-18">
          <mxGeometry y="194" width="380" height="26" as="geometry" />
        </mxCell>
        <mxCell id="dMVTZBA2ObA4GUsqTA2Y-26" value="+ String getNombre()" style="text;strokeColor=none;fillColor=none;align=left;verticalAlign=top;spacingLeft=4;spacingRight=4;overflow=hidden;rotatable=0;points=[[0,0.5],[1,0.5]];portConstraint=eastwest;" vertex="1" parent="dMVTZBA2ObA4GUsqTA2Y-18">
          <mxGeometry y="220" width="380" height="26" as="geometry" />
        </mxCell>
        <mxCell id="dMVTZBA2ObA4GUsqTA2Y-28" value="+ Ubicacion getEpicentro()" style="text;strokeColor=none;fillColor=none;align=left;verticalAlign=top;spacingLeft=4;spacingRight=4;overflow=hidden;rotatable=0;points=[[0,0.5],[1,0.5]];portConstraint=eastwest;" vertex="1" parent="dMVTZBA2ObA4GUsqTA2Y-18">
          <mxGeometry y="246" width="380" height="26" as="geometry" />
        </mxCell>
        <mxCell id="dMVTZBA2ObA4GUsqTA2Y-29" value="+ double getRadio()" style="text;strokeColor=none;fillColor=none;align=left;verticalAlign=top;spacingLeft=4;spacingRight=4;overflow=hidden;rotatable=0;points=[[0,0.5],[1,0.5]];portConstraint=eastwest;" vertex="1" parent="dMVTZBA2ObA4GUsqTA2Y-18">
          <mxGeometry y="272" width="380" height="26" as="geometry" />
        </mxCell>
        <mxCell id="dMVTZBA2ObA4GUsqTA2Y-30" value="+ List&lt;Muestra&gt; getMuestras()" style="text;strokeColor=none;fillColor=none;align=left;verticalAlign=top;spacingLeft=4;spacingRight=4;overflow=hidden;rotatable=0;points=[[0,0.5],[1,0.5]];portConstraint=eastwest;" vertex="1" parent="dMVTZBA2ObA4GUsqTA2Y-18">
          <mxGeometry y="298" width="380" height="26" as="geometry" />
        </mxCell>
        <mxCell id="dMVTZBA2ObA4GUsqTA2Y-31" value="+ boolean contiene(Ubicacion)" style="text;strokeColor=none;fillColor=none;align=left;verticalAlign=top;spacingLeft=4;spacingRight=4;overflow=hidden;rotatable=0;points=[[0,0.5],[1,0.5]];portConstraint=eastwest;" vertex="1" parent="dMVTZBA2ObA4GUsqTA2Y-18">
          <mxGeometry y="324" width="380" height="26" as="geometry" />
        </mxCell>
        <mxCell id="dMVTZBA2ObA4GUsqTA2Y-32" value="+ boolean seSuperponeCon(ZonaDeCobertura)" style="text;strokeColor=none;fillColor=none;align=left;verticalAlign=top;spacingLeft=4;spacingRight=4;overflow=hidden;rotatable=0;points=[[0,0.5],[1,0.5]];portConstraint=eastwest;" vertex="1" parent="dMVTZBA2ObA4GUsqTA2Y-18">
          <mxGeometry y="350" width="380" height="26" as="geometry" />
        </mxCell>
        <mxCell id="dMVTZBA2ObA4GUsqTA2Y-33" value="+ void agregarMuestra(Muestra)" style="text;strokeColor=none;fillColor=none;align=left;verticalAlign=top;spacingLeft=4;spacingRight=4;overflow=hidden;rotatable=0;points=[[0,0.5],[1,0.5]];portConstraint=eastwest;" vertex="1" parent="dMVTZBA2ObA4GUsqTA2Y-18">
          <mxGeometry y="376" width="380" height="26" as="geometry" />
        </mxCell>
        <mxCell id="dMVTZBA2ObA4GUsqTA2Y-34" value="+ void muestraVerificada(Muestra)" style="text;strokeColor=none;fillColor=none;align=left;verticalAlign=top;spacingLeft=4;spacingRight=4;overflow=hidden;rotatable=0;points=[[0,0.5],[1,0.5]];portConstraint=eastwest;" vertex="1" parent="dMVTZBA2ObA4GUsqTA2Y-18">
          <mxGeometry y="402" width="380" height="26" as="geometry" />
        </mxCell>
        <mxCell id="dMVTZBA2ObA4GUsqTA2Y-35" value="+ void registrarOrganizacion(Organizacion)" style="text;strokeColor=none;fillColor=none;align=left;verticalAlign=top;spacingLeft=4;spacingRight=4;overflow=hidden;rotatable=0;points=[[0,0.5],[1,0.5]];portConstraint=eastwest;" vertex="1" parent="dMVTZBA2ObA4GUsqTA2Y-18">
          <mxGeometry y="428" width="380" height="26" as="geometry" />
        </mxCell>
        <mxCell id="dMVTZBA2ObA4GUsqTA2Y-39" value="&amp;nbsp;- boolean contieneMuestra(Muestra)" style="text;html=1;align=left;verticalAlign=middle;resizable=0;points=[];autosize=1;strokeColor=none;fillColor=none;" vertex="1" parent="dMVTZBA2ObA4GUsqTA2Y-18">
          <mxGeometry y="454" width="380" height="30" as="geometry" />
        </mxCell>
        <mxCell id="dMVTZBA2ObA4GUsqTA2Y-36" value="+ void desregistrarOrganizacion(Organizacion)" style="text;strokeColor=none;fillColor=none;align=left;verticalAlign=top;spacingLeft=4;spacingRight=4;overflow=hidden;rotatable=0;points=[[0,0.5],[1,0.5]];portConstraint=eastwest;" vertex="1" parent="dMVTZBA2ObA4GUsqTA2Y-18">
          <mxGeometry y="484" width="380" height="36" as="geometry" />
        </mxCell>
        <mxCell id="dMVTZBA2ObA4GUsqTA2Y-41" value="organizacionesObservers" style="edgeStyle=orthogonalEdgeStyle;rounded=0;orthogonalLoop=1;jettySize=auto;html=1;exitX=1;exitY=0.5;exitDx=0;exitDy=0;entryX=0.5;entryY=0;entryDx=0;entryDy=0;endArrow=open;endFill=0;" edge="1" parent="1" source="dMVTZBA2ObA4GUsqTA2Y-25" target="7A8Va4b6gNFC_HV1zoVn-300">
          <mxGeometry relative="1" as="geometry" />
        </mxCell>
        <mxCell id="dMVTZBA2ObA4GUsqTA2Y-44" value="ubicacion" style="edgeStyle=orthogonalEdgeStyle;rounded=0;orthogonalLoop=1;jettySize=auto;html=1;exitX=0;exitY=0.5;exitDx=0;exitDy=0;entryX=1;entryY=0.5;entryDx=0;entryDy=0;" edge="1" parent="1" source="7A8Va4b6gNFC_HV1zoVn-288" target="7A8Va4b6gNFC_HV1zoVn-305">
          <mxGeometry relative="1" as="geometry" />
        </mxCell>
      </root>
    </mxGraphModel>
  </diagram>
</mxfile>
